<svg width="418" height="228" xmlns="http://www.w3.org/2000/svg">

 <g>
  <title>background</title>
  <rect fill="none" id="canvas_background" height="230" width="420" y="-1" x="-1"/>
 </g>
 <g>
  <title>Layer 1</title>
  <g id="svgg">
   <path fill-rule="evenodd" fill="#ffffff" d="m135.172,8.703c0.361,0.361 0.742,0.365 1.344,0.014c0.738,-0.429 0.676,-0.491 -0.502,-0.503c-0.98,-0.01 -1.208,0.123 -0.842,0.489m17.903,-0.047c0.883,0.571 1.367,0.571 1.367,0c0,-0.251 -0.461,-0.452 -1.025,-0.449c-0.829,0.006 -0.894,0.092 -0.342,0.449m-21.868,0.456c0,0.25 0.308,0.455 0.684,0.455c0.376,0 0.683,-0.205 0.683,-0.455c0,-0.251 -0.307,-0.456 -0.683,-0.456c-0.376,0 -0.684,0.205 -0.684,0.456m25.968,0c0,0.25 0.308,0.455 0.684,0.455c0.376,0 0.683,-0.205 0.683,-0.455c0,-0.251 -0.307,-0.456 -0.683,-0.456c-0.376,0 -0.684,0.205 -0.684,0.456m-29.157,0.455c0,0.251 0.308,0.456 0.684,0.456c0.375,0 0.683,-0.205 0.683,-0.456c0,-0.25 -0.308,-0.455 -0.683,-0.455c-0.376,0 -0.684,0.205 -0.684,0.455m49.203,5.567c0.626,0.274 1.293,0.466 1.481,0.427c0.188,-0.039 0.341,0.134 0.341,0.384c0,0.251 0.205,0.456 0.456,0.456c1.001,0 0.37,-0.852 -0.979,-1.322c-1.836,-0.64 -2.796,-0.599 -1.299,0.055m-66.957,0.338c-0.369,0.233 -0.552,0.542 -0.407,0.687c0.359,0.359 1.76,-0.213 1.76,-0.718c0,-0.519 -0.501,-0.508 -1.353,0.031m-2.276,1.261c-0.597,0.672 -0.581,0.719 0.151,0.438c0.451,-0.173 0.905,-0.315 1.01,-0.315c0.105,0 0.19,-0.205 0.19,-0.455c0,-0.67 -0.59,-0.525 -1.351,0.332m72.422,-0.428c0,0.198 1.482,1.172 3.294,2.164c3.668,2.009 4.614,2.407 3.426,1.441c-0.495,-0.402 -0.797,-1.278 -0.797,-2.306c0,-1.878 -3.38,-2.688 -3.726,-0.894c-0.137,0.716 -0.196,0.716 -0.912,0c-0.828,-0.829 -1.285,-0.973 -1.285,-0.405m-76.7,2.602c-0.376,0.375 -0.852,0.688 -1.058,0.693c-0.653,0.018 -2.65,1.738 -2.358,2.031c0.155,0.154 0.562,0.014 0.905,-0.312c0.343,-0.326 1.392,-0.997 2.332,-1.492c0.939,-0.495 1.708,-1.058 1.708,-1.252c0,-0.574 -0.796,-0.402 -1.529,0.332m-5.723,3.655c-0.606,0.333 -1.293,0.946 -1.526,1.363c-0.359,0.641 -0.295,0.683 0.419,0.274c2.621,-1.503 3.661,-3.039 1.107,-1.637m93.357,0.624c0,0.505 1.402,1.077 1.76,0.718c0.145,-0.145 -0.038,-0.454 -0.406,-0.687c-0.852,-0.539 -1.354,-0.55 -1.354,-0.031m3.075,2.415c0.55,0.55 1.144,0.855 1.321,0.679c0.177,-0.177 -0.074,-0.62 -0.557,-0.985c-1.355,-1.026 -1.883,-0.813 -0.764,0.306m-100.588,0.402c-0.463,0.865 -0.425,0.902 0.44,0.439c0.972,-0.52 1.288,-1.385 0.506,-1.385c-0.242,0 -0.667,0.425 -0.946,0.946m104.971,3.334c1.471,1.344 3.774,3.647 5.118,5.118c1.344,1.471 2.447,2.407 2.451,2.08c0.009,-0.742 -8.955,-9.658 -9.7,-9.649c-0.299,0.004 0.66,1.107 2.131,2.451m-111.064,2.119c-2.234,2.244 -3.948,4.194 -3.808,4.334c0.216,0.217 8.553,-7.875 8.553,-8.302c0,-0.596 -1.203,0.411 -4.745,3.968m45.747,-0.477c0,0.251 0.308,0.456 0.684,0.456c0.375,0 0.683,-0.205 0.683,-0.456c0,-0.25 -0.308,-0.455 -0.683,-0.455c-0.376,0 -0.684,0.205 -0.684,0.455m21.185,0c0.155,0.251 0.577,0.456 0.938,0.456c0.361,0 0.656,-0.205 0.656,-0.456c0,-0.25 -0.422,-0.455 -0.938,-0.455c-0.516,0 -0.811,0.205 -0.656,0.455m-29.385,2.278c0,0.251 0.307,0.456 0.683,0.456c0.376,0 0.683,-0.205 0.683,-0.456c0,-0.25 -0.307,-0.455 -0.683,-0.455c-0.376,0 -0.683,0.205 -0.683,0.455m43.166,2.162c1.002,0.886 1.025,1.122 1.025,10.534l0,9.628l3.645,0l3.644,0l0,-4.556l0,-4.556l2.962,0l2.961,0l0,4.556l0,4.556l3.601,0l3.6,0l0.158,-2.279c0.155,-2.237 0.107,-2.333 -2.575,-5.171c-2.972,-3.143 -8.643,-8.04 -9.313,-8.04c-0.23,0 -0.726,-0.309 -1.104,-0.686c-0.84,-0.84 -6.922,-4.109 -8.49,-4.563l-1.139,-0.33l1.025,0.907m-49.544,0.253c-1.529,0.712 -2.933,2.032 -1.595,1.5c0.501,-0.2 1.475,-0.567 2.164,-0.817c0.689,-0.249 1.253,-0.638 1.253,-0.864c0,-0.522 -0.399,-0.482 -1.822,0.181m-36.902,2.141c-0.314,0.586 -0.326,0.911 -0.033,0.911c0.251,0 0.676,-0.41 0.944,-0.911c0.313,-0.586 0.325,-0.911 0.032,-0.911c-0.251,0 -0.675,0.41 -0.943,0.911m31.865,0.73c-1.364,1.031 -1.42,1.144 -0.43,0.866c0.626,-0.177 1.364,-0.605 1.639,-0.951c0.276,-0.347 0.634,-0.497 0.797,-0.334c0.164,0.163 0.297,0.057 0.297,-0.235c0,-0.811 -0.584,-0.645 -2.303,0.654m92.964,-0.8c0,0.211 0.41,0.756 0.911,1.209c1.025,0.928 1.201,0.42 0.277,-0.797c-0.648,-0.853 -1.188,-1.041 -1.188,-0.412m-126.898,2.378c-0.165,0.268 -0.191,0.596 -0.057,0.729c0.326,0.327 1.214,-0.248 1.214,-0.786c0,-0.582 -0.786,-0.543 -1.157,0.057m30.274,0.918c-0.604,0.525 -1.404,1.126 -1.778,1.336c-0.374,0.21 -0.547,0.514 -0.385,0.676c0.162,0.162 0.673,-0.024 1.135,-0.413c0.463,-0.389 1.25,-1.002 1.751,-1.362c0.501,-0.36 0.79,-0.775 0.643,-0.923c-0.148,-0.147 -0.762,0.162 -1.366,0.686m98.918,-0.677c-0.009,0.274 0.496,1.094 1.122,1.822c0.626,0.728 1.138,1.119 1.137,0.868c-0.003,-0.638 -2.239,-3.301 -2.259,-2.69m-130.553,1.918c-0.455,0.325 -1.582,2.17 -1.582,2.589c0,0.679 0.816,0.063 1.541,-1.165c0.835,-1.413 0.852,-2.005 0.041,-1.424m24.518,4.895c-1.885,1.892 -3.305,3.562 -3.156,3.711c0.15,0.15 1.916,-1.398 3.925,-3.439c2.008,-2.041 3.428,-3.711 3.156,-3.711c-0.273,0 -2.039,1.547 -3.925,3.439m108.573,-2.794c0.152,0.397 0.477,0.722 0.721,0.722c0.599,0 0.224,-1.036 -0.457,-1.263c-0.333,-0.111 -0.435,0.097 -0.264,0.541m1.105,1.433c0.023,0.689 1.317,2.209 1.621,1.905c0.153,-0.153 -0.152,-0.741 -0.679,-1.306c-0.526,-0.564 -0.95,-0.834 -0.942,-0.599m-137.296,0.959c-0.436,0.435 -0.375,1.063 0.103,1.063c0.223,0 0.525,-0.308 0.669,-0.683c0.266,-0.695 -0.219,-0.933 -0.772,-0.38m138.924,2.164c0.152,0.397 0.477,0.721 0.722,0.721c0.599,0 0.224,-1.035 -0.457,-1.262c-0.333,-0.111 -0.435,0.097 -0.265,0.541m1.692,3.113c0.518,1.065 1.125,2.062 1.348,2.215c0.224,0.153 0.395,0.407 0.38,0.565c-0.014,0.157 0.161,0.749 0.388,1.316c0.228,0.566 0.427,0.777 0.443,0.469c0.043,-0.836 -1.43,-4.362 -2.111,-5.053c-0.327,-0.331 -0.594,-0.792 -0.594,-1.025c0,-0.233 -0.179,-0.423 -0.398,-0.423c-0.219,0 0.026,0.871 0.544,1.936m-143.449,0.099c-0.363,0.869 -0.647,1.843 -0.631,2.164c0.016,0.322 0.253,0.072 0.526,-0.554c0.274,-0.627 0.466,-1.293 0.427,-1.481c-0.039,-0.188 0.112,-0.342 0.336,-0.342c0.224,0 0.525,-0.307 0.669,-0.683c0.556,-1.449 -0.702,-0.599 -1.327,0.896m24.412,2.187c-0.869,1.311 -1.535,2.538 -1.481,2.726c0.055,0.187 -0.084,0.341 -0.308,0.341c-0.224,0 -0.521,0.297 -0.66,0.66c-0.524,1.365 0.936,0.172 1.668,-1.363c0.413,-0.866 0.959,-1.575 1.214,-1.575c0.255,0 0.463,-0.282 0.463,-0.627c0,-0.345 0.307,-0.883 0.683,-1.195c0.376,-0.312 0.684,-0.747 0.684,-0.967c0,-0.926 -0.782,-0.236 -2.263,2m121.625,3.436c0,0.202 0.301,0.766 0.669,1.253c0.683,0.902 0.919,0.397 0.421,-0.901c-0.286,-0.745 -1.09,-1.004 -1.09,-0.352m-125.171,2.164c-0.671,0.728 -0.727,1.112 -0.163,1.112c0.389,0 1.117,-1.371 0.857,-1.614c-0.068,-0.064 -0.381,0.162 -0.694,0.502m102.215,0.443c0.416,0.634 0.845,1.064 0.953,0.955c0.271,-0.27 -0.908,-2.108 -1.352,-2.108c-0.196,0 -0.016,0.518 0.399,1.153m-126.93,0.441c0,0.376 0.205,0.683 0.455,0.683c0.251,0 0.456,-0.307 0.456,-0.683c0,-0.376 -0.205,-0.683 -0.456,-0.683c-0.25,0 -0.455,0.307 -0.455,0.683m23.511,1.404c-0.428,1.115 -0.335,1.225 0.407,0.483c0.774,-0.774 0.873,-1.204 0.276,-1.204c-0.224,0 -0.531,0.325 -0.683,0.721m104.963,1.59c0,0.268 0.347,0.832 0.771,1.253c0.723,0.716 0.752,0.712 0.456,-0.07c-0.174,-0.459 -0.316,-1.023 -0.316,-1.253c0,-0.23 -0.205,-0.418 -0.456,-0.418c-0.25,0 -0.455,0.219 -0.455,0.488m-106.003,0.267c0.165,0.165 0.072,0.575 -0.208,0.911c-0.373,0.45 -0.372,0.612 0.004,0.612c0.282,0 0.512,-0.086 0.512,-0.191c0,-0.105 0.124,-0.515 0.276,-0.911c0.163,-0.425 0.039,-0.721 -0.303,-0.721c-0.32,0 -0.446,0.135 -0.281,0.3m86.953,1.409c0.11,0.581 0.674,0.835 2.083,0.937c1.964,0.143 2.369,-0.204 1.386,-1.188c-0.906,-0.905 -3.651,-0.707 -3.469,0.251m7.289,0c0.245,1.291 4.471,1.422 4.471,0.139c0,-0.822 -0.283,-0.937 -2.311,-0.937c-1.955,0 -2.288,0.123 -2.16,0.798m-159.082,22.687l0,12.094l2.847,-0.135l2.847,-0.136l0.135,-3.075l0.135,-3.075l2.829,0c6.559,0 9.886,-3.009 9.886,-8.94c0,-6.36 -3.583,-8.816 -12.871,-8.824l-5.808,-0.004l0,12.095m28.16,-0.384c-5.958,13.091 -5.843,12.435 -2.187,12.435c2.621,0 2.704,-0.038 3.442,-1.595l0.757,-1.594l4.687,0l4.686,0l0.941,1.594c0.896,1.519 1.062,1.595 3.476,1.595c3.286,0 3.38,-0.363 1.237,-4.803c-0.963,-1.994 -3.362,-7.162 -5.332,-11.484c-5.16,-11.325 -4.736,-11.464 -11.707,3.852m21.802,-11.407c-0.167,0.167 -0.304,1.387 -0.304,2.712l0,2.409l3.075,0.135l3.075,0.135l0.124,9.247l0.123,9.247l2.838,-0.136l2.838,-0.135l0.123,-9.226l0.124,-9.225l2.724,0l2.724,0l0,-2.734l0,-2.733l-8.58,0c-4.72,0 -8.717,0.137 -8.884,0.304m23.842,2.429l0,2.734l1.367,0l1.366,0l0,6.606l0,6.606l-1.594,0l-1.595,0l0,2.747l0,2.746l6.037,-0.127l6.036,-0.127l0.137,-2.62l0.136,-2.619l-1.617,0l-1.617,0l0,-6.606l0,-6.606l1.367,0l1.366,0l0,-2.734l0,-2.733l-5.694,0l-5.695,0l0,2.733m19.339,-2.155c-0.121,0.317 -0.166,5.699 -0.099,11.959l0.122,11.381l7.403,0.125l7.403,0.125l0,-2.728l0,-2.728l-4.442,-0.131l-4.441,-0.13l0,-2.05l0,-2.05l3.986,-0.132l3.986,-0.131l0,-2.471l0,-2.47l-3.986,-0.132l-3.986,-0.131l0,-1.595l0,-1.594l4.214,-0.131l4.214,-0.131l0,-2.717l0,-2.716l-7.076,0c-5.294,0 -7.132,0.145 -7.298,0.578m23.941,11.495l0,12.073l2.961,0l2.962,0l0,-5.391c0,-2.965 0.132,-5.524 0.294,-5.686c0.163,-0.162 2.948,2.275 6.191,5.417c8.328,8.069 7.865,8.446 7.865,-6.413l0,-11.845l-3.075,-0.135l-3.075,-0.135l0,5.716c0,3.144 -0.157,5.716 -0.349,5.716c-0.191,0 -2.905,-2.563 -6.029,-5.695c-3.932,-3.941 -5.999,-5.695 -6.713,-5.695l-1.032,0l0,12.073m27.639,-11.769c-0.168,0.167 -0.304,1.397 -0.304,2.733l0,2.43l2.952,0l2.952,0l0.123,9.225l0.123,9.226l2.838,0.135l2.838,0.136l0.123,-9.247l0.124,-9.247l2.847,-0.136l2.847,-0.136l0,-2.711l0,-2.712l-8.58,0c-4.719,0 -8.716,0.137 -8.883,0.304m133.6,3.505c0.607,0.659 1.191,1.111 1.299,1.003c0.327,-0.327 -0.344,-1.133 -1.402,-1.682c-0.953,-0.496 -0.948,-0.464 0.103,0.679m-266.4,2.412c2.595,2.349 0.547,6.08 -3.338,6.08l-2.663,0l0,-3.417l0,-3.417l2.584,0c1.765,0 2.848,0.239 3.417,0.754m24.288,6.065c1.708,3.37 1.598,3.659 -1.39,3.659c-2.853,0 -2.819,0.127 -1.059,-3.986c1.036,-2.42 1.059,-2.417 2.449,0.327m250.364,-0.555c0.026,0.619 1.337,2.103 1.613,1.827c0.149,-0.149 -0.157,-0.697 -0.679,-1.219c-0.522,-0.522 -0.942,-0.796 -0.934,-0.608m-32.6,2.218c0.406,0.406 0.876,0.6 1.045,0.431c0.168,-0.168 0.005,-0.497 -0.364,-0.73c-1.076,-0.681 -1.482,-0.502 -0.681,0.299m6.893,4.464c0.152,0.397 0.477,0.721 0.722,0.721c0.599,0 0.224,-1.035 -0.457,-1.262c-0.333,-0.111 -0.435,0.097 -0.265,0.541m-62.933,2.134c-0.167,0.526 -0.078,1.182 0.197,1.458c0.364,0.364 0.501,0.103 0.501,-0.957c0,-1.683 -0.263,-1.872 -0.698,-0.501m-215.426,0.219c-0.414,1.079 -0.335,1.647 0.186,1.325c0.255,-0.157 0.345,-0.477 0.201,-0.71c-0.144,-0.233 -0.045,-0.424 0.22,-0.424c0.266,0 0.483,-0.205 0.483,-0.456c0,-0.721 -0.785,-0.53 -1.09,0.265m281.534,0.132c0.482,0.469 0.957,0.781 1.056,0.694c0.287,-0.254 -0.928,-1.546 -1.453,-1.546c-0.264,0 -0.085,0.383 0.397,0.852m-66.473,3.552c-0.473,0.472 -0.357,1.974 0.152,1.974c0.25,0 0.455,-0.513 0.455,-1.139c0,-1.193 -0.105,-1.338 -0.607,-0.835m71.678,1.368c0,0.582 1.749,2.198 2.051,1.896c0.123,-0.123 -0.288,-0.704 -0.914,-1.292c-0.625,-0.588 -1.137,-0.859 -1.137,-0.604m-72.437,2.656c0,0.376 0.205,0.683 0.455,0.683c0.251,0 0.456,-0.307 0.456,-0.683c0,-0.376 -0.205,-0.684 -0.456,-0.684c-0.25,0 -0.455,0.308 -0.455,0.684m-1.823,6.834c0,0.375 0.205,0.683 0.456,0.683c0.25,0 0.455,-0.308 0.455,-0.683c0,-0.376 -0.205,-0.684 -0.455,-0.684c-0.251,0 -0.456,0.308 -0.456,0.684m82.467,2.391c0.016,0.748 0.877,1.659 1.222,1.291c0.201,-0.214 0.108,-0.482 -0.206,-0.595c-0.315,-0.112 -0.457,-0.392 -0.315,-0.621c0.141,-0.229 0.04,-0.416 -0.225,-0.416c-0.265,0 -0.479,0.153 -0.476,0.341m-235.527,0.684c0.008,0.313 0.343,0.979 0.744,1.48c0.642,0.801 0.695,0.81 0.441,0.077c-0.159,-0.459 -0.289,-1.125 -0.289,-1.481c0,-0.355 -0.205,-0.646 -0.455,-0.646c-0.251,0 -0.449,0.256 -0.441,0.57m24.131,0.797c0,0.251 0.217,0.456 0.482,0.456c0.266,0 0.356,0.205 0.201,0.455c-0.155,0.251 -0.064,0.456 0.201,0.456c0.559,0 0.582,-0.123 0.206,-1.102c-0.305,-0.795 -1.09,-0.986 -1.09,-0.265m-22.309,3.493c-0.024,0.866 0.507,1.974 0.945,1.974c0.597,0 0.498,-0.618 -0.262,-1.621c-0.368,-0.487 -0.675,-0.645 -0.683,-0.353m26.846,3.762c0.521,0.972 1.385,1.288 1.385,0.506c0,-0.242 -0.425,-0.667 -0.945,-0.946c-0.865,-0.463 -0.903,-0.425 -0.44,0.44m4.119,4.765c0,0.467 3.284,3.944 4.175,4.421c0.46,0.246 0.833,0.389 0.83,0.318c-0.014,-0.276 -5.005,-5.002 -5.005,-4.739m158.314,2.281c-7.631,3.473 -9.342,14.86 -3.06,20.375c6.066,5.326 16.138,3.407 19.397,-3.697c4.855,-10.584 -5.808,-21.47 -16.337,-16.678m81.334,0.362c-0.506,0.831 -0.921,1.654 -0.922,1.829c-0.002,0.306 -1.236,2.977 -6.661,14.42c-3.128,6.596 -3.137,6.446 0.425,6.446c2.839,0 2.886,-0.021 3.637,-1.595l0.76,-1.594l4.579,0l4.578,0l0.941,1.594c0.831,1.408 6.773,2.656 6.773,1.423c0,-0.094 -2.431,-5.476 -5.402,-11.959c-6.031,-13.158 -6.66,-13.922 -8.708,-10.564m-113.908,10.849l0,11.846l2.962,0l2.961,0l0,-2.962l0,-2.961l2.619,-0.02c7.28,-0.055 11.327,-4.531 10.089,-11.158c-0.961,-5.143 -3.703,-6.59 -12.49,-6.59l-6.141,0l0,11.845m58.315,0l0,11.846l2.961,0l2.961,0l0,-3.432c0,-5.429 2.289,-5.48 5.249,-0.116l1.832,3.32l3.521,0.133c4.177,0.158 4.111,0.4 1.191,-4.362l-2.331,-3.801l0.942,-1.003c3.741,-3.982 2.821,-11.109 -1.73,-13.405c-1.815,-0.915 -2.707,-1.025 -8.315,-1.025l-6.281,0l0,11.845m24.905,-11.541c-0.167,0.167 -0.304,1.295 -0.304,2.506l0,2.202l2.642,0c3.81,0 3.736,-0.195 3.736,9.886l0,8.793l2.734,0l2.733,0l0,-9.063c0,-10.205 -0.225,-9.616 3.682,-9.616l2.241,0l0,-2.506l0,-2.506l-8.58,0c-4.72,0 -8.717,0.137 -8.884,0.304m51.48,0c-0.167,0.167 -0.303,5.497 -0.303,11.845l0,11.542l7.539,0l7.54,0l-0.136,-2.62l-0.137,-2.62l-4.442,-0.13l-4.442,-0.13l0,-9.095l0,-9.096l-2.657,0c-1.462,0 -2.795,0.137 -2.962,0.304m-285.227,1.746c0.41,0.627 0.82,1.139 0.912,1.139c0.091,0 -0.068,-0.512 -0.354,-1.139c-0.285,-0.626 -0.695,-1.138 -0.912,-1.138c-0.216,0 -0.057,0.512 0.354,1.138m1.201,2.136c0.099,0.298 0.424,0.622 0.722,0.721c0.333,0.111 0.435,-0.097 0.264,-0.541c-0.318,-0.828 -1.259,-1 -0.986,-0.18m30.594,1.204c0.472,0.532 1.015,0.871 1.206,0.753c0.19,-0.118 0.464,0.092 0.608,0.466c0.143,0.374 0.466,0.681 0.717,0.681c0.828,0 0,-1.233 -1.25,-1.86c-2.065,-1.037 -2.168,-1.04 -1.281,-0.04m130.826,0.74c2.687,2.687 0.686,6.292 -3.374,6.078l-2.569,-0.135l-0.138,-2.913c-0.187,-3.979 -0.079,-4.148 2.65,-4.148c1.848,0 2.537,0.224 3.431,1.118m27.398,-0.634c6.743,2.548 5.437,12.728 -1.633,12.728c-8.008,0 -7.972,-12.168 0.039,-13.173c0.171,-0.022 0.889,0.179 1.594,0.445m30.668,0.427c2.358,2.358 0.766,5.093 -3.128,5.374l-2.795,0.202l0,-2.94c0,-1.617 0.137,-3.076 0.304,-3.244c0.727,-0.726 4.716,-0.295 5.619,0.608m-217.568,0.797c0.404,0.815 0.946,1.481 1.205,1.481c0.259,0 0.344,0.205 0.19,0.455c-0.155,0.251 -0.065,0.456 0.201,0.456c0.797,0 0.554,-0.599 -0.925,-2.278l-1.406,-1.594l0.735,1.48m92.853,0.342c0.006,1.002 0.099,1.359 0.208,0.792c0.109,-0.567 0.105,-1.387 -0.009,-1.822c-0.114,-0.436 -0.204,0.028 -0.199,1.03m-60.251,1.052c0,0.245 0.325,0.57 0.721,0.722c0.444,0.17 0.652,0.068 0.541,-0.265c-0.227,-0.681 -1.262,-1.056 -1.262,-0.457m2.532,1.667c0.487,0.368 1.09,0.669 1.34,0.669c0.251,0 0.058,-0.301 -0.428,-0.669c-0.487,-0.368 -1.09,-0.669 -1.34,-0.669c-0.251,0 -0.058,0.301 0.428,0.669m-32.6,-0.011c0,0.683 0.924,1.983 1.592,2.239c0.563,0.216 0.617,0.104 0.265,-0.553c-0.498,-0.932 -1.857,-2.165 -1.857,-1.686m263.303,5.378c0.012,0.188 -1.105,0.342 -2.483,0.342c-2.779,0 -2.824,-0.073 -1.751,-2.838c1.345,-3.462 1.604,-3.508 2.976,-0.529c0.679,1.476 1.246,2.838 1.258,3.025m-177.185,-2.409c-0.369,0.233 -0.495,0.589 -0.28,0.79c0.215,0.202 0.483,0.109 0.595,-0.206c0.113,-0.314 0.392,-0.456 0.621,-0.315c0.23,0.142 0.417,0.041 0.417,-0.224c0,-0.591 -0.466,-0.606 -1.353,-0.045m-83.385,0.687c0,0.509 5.918,6.164 6.45,6.164c0.323,0 -0.837,-1.435 -2.578,-3.189c-2.821,-2.843 -3.872,-3.65 -3.872,-2.975m74.26,2.52c0,0.25 0.307,0.455 0.683,0.455c0.376,0 0.683,-0.205 0.683,-0.455c0,-0.251 -0.307,-0.456 -0.683,-0.456c-0.376,0 -0.683,0.205 -0.683,0.456m-20.957,1.822c0,0.251 0.41,0.456 0.911,0.456c0.501,0 0.911,-0.205 0.911,-0.456c0,-0.251 -0.41,-0.456 -0.911,-0.456c-0.501,0 -0.911,0.205 -0.911,0.456m11.39,0c0,0.251 0.512,0.456 1.138,0.456c0.627,0 1.139,-0.205 1.139,-0.456c0,-0.251 -0.512,-0.456 -1.139,-0.456c-0.626,0 -1.138,0.205 -1.138,0.456m-56.64,3.033c-0.166,0.166 0.12,0.598 0.635,0.959c1.217,0.852 1.589,0.479 0.503,-0.503c-0.46,-0.417 -0.972,-0.622 -1.138,-0.456m2.881,2.339c0,0.475 0.984,1.462 1.458,1.462c0.671,0 0.374,-0.686 -0.547,-1.261c-0.501,-0.313 -0.911,-0.404 -0.911,-0.201m2.554,2.107c0.291,0.757 2.457,1.787 2.457,1.167c0,-0.245 -0.307,-0.446 -0.683,-0.446c-0.376,0 -0.683,-0.183 -0.683,-0.406c0,-0.224 -0.297,-0.521 -0.661,-0.661c-0.418,-0.16 -0.576,-0.034 -0.43,0.346m7.469,4.773c0,0.224 0.324,0.531 0.72,0.683c0.98,0.376 1.102,0.353 1.102,-0.206c0,-0.265 -0.205,-0.355 -0.455,-0.2c-0.251,0.154 -0.456,0.064 -0.456,-0.201c0,-0.266 -0.205,-0.483 -0.456,-0.483c-0.25,0 -0.455,0.183 -0.455,0.407m4.556,2.278c0,0.505 1.401,1.077 1.76,0.718c0.145,-0.145 -0.038,-0.454 -0.407,-0.687c-0.852,-0.539 -1.353,-0.55 -1.353,-0.031m61.762,2.732c-0.159,0.256 -0.589,0.35 -0.957,0.209c-0.368,-0.141 -0.669,-0.029 -0.669,0.248c0,0.277 0.257,0.501 0.57,0.497c0.822,-0.01 1.959,-0.805 1.627,-1.137c-0.156,-0.156 -0.413,-0.073 -0.571,0.183m27.083,0.815c0.013,0.698 0.853,1.716 1.161,1.408c0.169,-0.169 -0.025,-0.639 -0.431,-1.045c-0.405,-0.405 -0.734,-0.569 -0.73,-0.363m-75.634,1.513c0,0.251 0.308,0.456 0.684,0.456c0.376,0 0.683,-0.205 0.683,-0.456c0,-0.251 -0.307,-0.456 -0.683,-0.456c-0.376,0 -0.684,0.205 -0.684,0.456m41.003,0c0,0.251 0.307,0.456 0.683,0.456c0.376,0 0.683,-0.205 0.683,-0.456c0,-0.251 -0.307,-0.456 -0.683,-0.456c-0.376,0 -0.683,0.205 -0.683,0.456m-38.497,0.456c-0.155,0.25 0.153,0.455 0.683,0.455c0.531,0 0.839,-0.205 0.684,-0.455c-0.155,-0.251 -0.463,-0.456 -0.684,-0.456c-0.221,0 -0.528,0.205 -0.683,0.456m10.251,1.822c0,0.25 0.512,0.456 1.139,0.456c0.626,0 1.139,-0.206 1.139,-0.456c0,-0.251 -0.513,-0.456 -1.139,-0.456c-0.627,0 -1.139,0.205 -1.139,0.456m14.578,0c0,0.25 0.615,0.456 1.367,0.456c0.752,0 1.367,-0.206 1.367,-0.456c0,-0.251 -0.615,-0.456 -1.367,-0.456c-0.752,0 -1.367,0.205 -1.367,0.456m148.34,7.099c-0.17,0.444 -0.068,0.652 0.265,0.541c0.681,-0.227 1.056,-1.262 0.457,-1.262c-0.245,0 -0.569,0.325 -0.722,0.721m-92.303,1.921c0,0.48 0.989,1.458 1.474,1.458c0.209,0 0.161,-0.41 -0.108,-0.911c-0.481,-0.9 -1.366,-1.254 -1.366,-0.547m91.116,0.042c0,0.308 -0.184,0.445 -0.408,0.307c-0.224,-0.139 -0.525,0.054 -0.669,0.429c-0.144,0.374 -0.088,0.68 0.124,0.68c0.583,0 1.58,-1.347 1.246,-1.681c-0.161,-0.161 -0.293,-0.042 -0.293,0.265m-8.112,7.822c-0.541,0.866 -0.515,0.9 0.346,0.439c0.513,-0.274 0.932,-0.696 0.932,-0.938c0,-0.746 -0.662,-0.487 -1.278,0.499m-4.796,3.465c-0.554,0.554 -0.315,1.039 0.379,0.772c0.376,-0.144 0.684,-0.445 0.684,-0.669c0,-0.477 -0.628,-0.538 -1.063,-0.103m-1.215,0.918c0,0.254 -0.461,0.684 -1.025,0.956c-0.564,0.272 -0.808,0.508 -0.543,0.525c0.766,0.049 2.285,-1.226 1.909,-1.602c-0.188,-0.188 -0.341,-0.133 -0.341,0.121m-93.85,2.314c0,0.19 0.422,0.609 0.939,0.932c0.866,0.541 0.9,0.514 0.439,-0.346c-0.484,-0.905 -1.378,-1.285 -1.378,-0.586m123.9,0.599c-0.463,0.865 -0.426,0.903 0.439,0.44c0.972,-0.521 1.288,-1.385 0.506,-1.385c-0.241,0 -0.667,0.425 -0.945,0.945m-119.8,3.92c0,0.46 3.289,3.387 3.533,3.144c0.115,-0.116 -0.5,-0.94 -1.366,-1.832c-1.523,-1.568 -2.167,-1.958 -2.167,-1.312m115.083,1.323c-0.17,0.444 -0.068,0.652 0.265,0.541c0.681,-0.227 1.056,-1.262 0.457,-1.262c-0.245,0 -0.57,0.324 -0.722,0.721m-64.057,1.101c0,0.25 0.41,0.455 0.911,0.455c0.501,0 0.911,-0.205 0.911,-0.455c0,-0.251 -0.41,-0.456 -0.911,-0.456c-0.501,0 -0.911,0.205 -0.911,0.456m13.211,0c0,0.25 0.308,0.455 0.684,0.455c0.376,0 0.683,-0.205 0.683,-0.455c0,-0.251 -0.307,-0.456 -0.683,-0.456c-0.376,0 -0.684,0.205 -0.684,0.456m46.199,3.255c-0.864,0.972 -0.863,0.975 0.157,0.44c0.563,-0.296 1.025,-0.736 1.025,-0.978c0,-0.647 -0.218,-0.548 -1.182,0.538m-99.046,4.032c0,0.234 0.405,0.643 0.901,0.908c0.723,0.387 0.851,0.352 0.648,-0.177c-0.294,-0.766 -1.549,-1.358 -1.549,-0.731m37.813,14.581c0,0.25 0.308,0.455 0.684,0.455c0.375,0 0.683,-0.205 0.683,-0.455c0,-0.251 -0.308,-0.456 -0.683,-0.456c-0.376,0 -0.684,0.205 -0.684,0.456m17.768,0c0,0.25 0.307,0.455 0.683,0.455c0.376,0 0.684,-0.205 0.684,-0.455c0,-0.251 -0.308,-0.456 -0.684,-0.456c-0.376,0 -0.683,0.205 -0.683,0.456" id="path0"/>
   <path fill-rule="evenodd" fill="#90908f" d="m4.845,67.343c0.161,0.672 0.441,1.427 0.624,1.678c0.182,0.25 1.101,2.3 2.042,4.555c0.94,2.255 2.196,5.199 2.791,6.541c0.595,1.342 0.968,2.623 0.83,2.847c-0.139,0.224 -0.035,0.407 0.231,0.407c0.265,0 0.482,0.26 0.482,0.577c0,0.316 0.422,1.363 0.937,2.324c0.904,1.687 0.903,4.389 -0.003,4.389c-0.198,0 -0.618,0.922 -0.934,2.05c-0.316,1.127 -0.764,2.05 -0.997,2.05c-0.233,0 -0.297,0.204 -0.142,0.454c0.154,0.251 -0.023,1.019 -0.394,1.709c-0.945,1.757 -2.221,4.696 -4.054,9.34l-1.573,3.987l97.586,0l97.585,0l1.219,-3.987c3.674,-12.023 3.67,-23.97 -0.01,-35.756c-0.618,-1.978 -1.443,-3.707 -1.88,-3.94c-0.463,-0.247 -40.173,-0.423 -97.705,-0.432l-96.926,-0.016l0.291,1.223m59.901,12.27c1.018,2.192 2.225,4.806 2.683,5.808c0.458,1.003 1.995,4.283 3.414,7.29c3.389,7.176 3.422,7.701 0.486,7.887c-3.165,0.2 -4.16,-0.158 -4.812,-1.731l-0.568,-1.373l-4.615,0.01l-4.614,0.01l-0.684,1.471c-0.647,1.393 -0.827,1.477 -3.416,1.588c-3.685,0.159 -4.343,-0.288 -3.332,-2.264c0.422,-0.824 1.273,-2.626 1.892,-4.004c7.757,-17.284 8.518,-18.679 10.19,-18.679c1.473,0 1.589,0.138 3.376,3.987m86.261,1.48c3.041,3.007 5.673,5.467 5.849,5.467c0.176,0 0.319,-2.357 0.319,-5.239l0,-5.239l3.425,0l3.424,0l-0.121,12.187l-0.122,12.187l-1.009,0.143c-0.768,0.109 -2.42,-1.232 -6.933,-5.633l-5.924,-5.776l-0.128,5.633l-0.129,5.633l-3.189,0l-3.189,0l-0.122,-11.838c-0.164,-15.971 -0.433,-15.712 7.849,-7.525m-110.311,-4.39c9.018,3.768 5.152,17.602 -4.918,17.602l-2.976,0l0,2.953c0,3.386 -0.277,3.598 -4.358,3.34l-2.248,-0.142l-0.121,-12.187l-0.122,-12.187l6.628,0c4.567,0 7.091,0.193 8.115,0.621m53.609,2.34l0,2.962l-2.952,0l-2.951,0l-0.124,9.225l-0.123,9.226l-2.961,0l-2.962,0l-0.123,-9.226l-0.123,-9.225l-2.952,0l-2.952,0l0,-2.962l0,-2.961l9.112,0l9.111,0l0,2.961m17.676,-0.114c-0.13,2.729 -0.188,2.854 -1.389,2.992l-1.253,0.144l0,6.348l0,6.348l1.389,0l1.388,0l-0.135,2.847l-0.136,2.848l-6.036,0.127l-6.037,0.127l0,-2.975l0,-2.974l1.367,0l1.367,0l0,-6.348l0,-6.348l-1.253,-0.144c-1.201,-0.138 -1.259,-0.263 -1.389,-2.992l-0.135,-2.847l6.194,0l6.193,0l-0.135,2.847m22.779,0l-0.136,2.848l-4.442,0.13l-4.442,0.131l0,1.332l0,1.333l3.987,0.131l3.986,0.132l0,2.733l0,2.734l-3.986,0.131l-3.987,0.132l0,1.788l0,1.788l4.442,0.131l4.442,0.13l0,2.961l0,2.962l-7.228,0.125c-4.944,0.086 -7.428,-0.039 -7.859,-0.397c-0.669,-0.555 -0.979,-23.146 -0.327,-23.798c0.167,-0.167 3.765,-0.304 7.995,-0.304l7.69,0l-0.135,2.847m54.306,0.114l0,2.962l-2.952,0l-2.952,0l-0.123,9.225l-0.123,9.226l-2.658,0.137c-4.04,0.21 -3.948,0.435 -3.948,-9.739l0,-8.806l-2.848,-0.136l-2.847,-0.135l-0.136,-2.848l-0.135,-2.847l9.361,0l9.361,0l0,2.961m-156.264,5.923l0,2.961l2.414,0c2.922,0 3.508,-0.507 3.508,-3.036c0,-2.319 -0.756,-2.886 -3.842,-2.886l-2.08,0l0,2.961m27.562,3.745c-0.501,1.181 -0.979,2.308 -1.063,2.504c-0.083,0.196 0.802,0.357 1.967,0.357c2.341,0 2.332,0.036 0.858,-3.491c-0.789,-1.889 -0.675,-1.929 -1.762,0.63m158.35,30.651c-0.183,0.125 -1.305,2.164 -2.491,4.531c-6.73,13.418 -16.52,24.191 -29.398,32.351c-3.77,2.388 -10.849,5.943 -11.835,5.943c-0.276,0 -0.503,0.205 -0.503,0.455c0,0.303 37.054,0.456 110.251,0.456c120.209,0 111.239,0.197 109.625,-2.408c-0.343,-0.555 -1.008,-2.136 -1.476,-3.515c-0.469,-1.378 -0.968,-2.608 -1.109,-2.733c-0.141,-0.125 -1.124,-2.38 -2.185,-5.011c-1.06,-2.631 -2.205,-5.297 -2.544,-5.923c-0.786,-1.453 -0.787,-3.555 -0.003,-5.011c0.337,-0.627 1.152,-2.472 1.81,-4.101c2.424,-6 2.687,-6.61 2.946,-6.833c0.145,-0.126 0.544,-1.099 0.887,-2.164c0.343,-1.065 0.807,-1.937 1.033,-1.937c0.225,0 0.286,-0.199 0.136,-0.442c-0.15,-0.243 0.058,-1.082 0.462,-1.864c0.405,-0.783 0.639,-1.52 0.521,-1.638c-0.29,-0.29 -175.704,-0.445 -176.127,-0.156m49.487,9.131c8.546,1.857 12.028,13.396 6.234,20.658c-5.681,7.119 -18.95,4.802 -21.514,-3.756c-3.183,-10.624 4.592,-19.224 15.28,-16.902m75.793,-0.003c0.484,0.259 0.881,0.657 0.881,0.884c0,0.228 1.101,2.732 2.447,5.565c1.347,2.834 3.063,6.485 3.814,8.113c0.751,1.629 1.905,4.128 2.563,5.553c1.919,4.149 1.782,4.47 -1.906,4.47c-3.1,0 -3.106,-0.002 -3.865,-1.594l-0.761,-1.595l-4.478,0l-4.479,0l-0.761,1.595c-0.842,1.765 -6.367,2.53 -6.968,0.964c-0.189,-0.494 5.308,-13.32 7.139,-16.654c0.215,-0.391 1.038,-2.146 1.83,-3.9c1.797,-3.982 2.49,-4.5 4.544,-3.401m-101.712,1.465c7.729,5.121 3.962,16.742 -5.427,16.742l-3.556,0l-0.135,3.075l-0.134,3.075l-3.189,0l-3.19,0l-0.121,-12.219l-0.121,-12.219l6.99,0.147c6.748,0.141 7.056,0.189 8.883,1.399m57.298,-0.617c4.821,2.189 6.314,8.981 2.917,13.269l-1.439,1.817l0.918,1.478c4.482,7.215 4.484,7.173 -0.297,7.173l-3.506,0l-1.828,-3.303c-1.615,-2.917 -1.998,-3.319 -3.28,-3.444l-1.452,-0.141l-0.135,3.33l-0.134,3.33l-3.189,0l-3.189,0l-0.122,-12.186l-0.121,-12.187l6.5,0.01c5.339,0.008 6.831,0.16 8.357,0.854m28.438,2.075l0,2.94l-2.847,0.136l-2.848,0.135l-0.123,9.245l-0.123,9.246l-3.294,-0.134l-3.293,-0.134l-0.124,-9.225l-0.123,-9.226l-2.724,0l-2.724,0l0,-2.961l0,-2.961l9.112,0l9.111,0l0,2.939m39.636,6.172l0,9.112l4.328,0l4.328,0l0,3.2l0,3.2l-7.631,-0.125l-7.631,-0.125l-0.122,-11.609c-0.146,-13.911 -0.463,-12.764 3.524,-12.764l3.204,0l0,9.111m-134.397,0l0,3.189l2.45,0c2.921,0 3.68,-0.678 3.68,-3.29c0,-2.295 -1.011,-3.088 -3.939,-3.088l-2.191,0l0,3.189m29.765,-2.684c-4.95,1.417 -5.2,9.25 -0.368,11.543c2.189,1.039 4.624,0.419 6.333,-1.612c2.434,-2.894 1.128,-8.824 -2.151,-9.764c-1.942,-0.557 -2.384,-0.576 -3.814,-0.167m28.55,2.229l0,2.733l2.08,0c3.036,0 3.842,-0.579 3.842,-2.76c0,-2.081 -0.955,-2.707 -4.13,-2.707l-1.792,0l0,2.734m50.143,4.133c-1.211,2.678 -1.154,2.804 1.183,2.615l1.763,-0.142l-0.954,-2.385l-0.954,-2.386l-1.038,2.298" id="path1"/>
   <path fill-rule="evenodd" fill="#bebebd" d="m143.166,29.945c0.94,0.098 2.478,0.098 3.417,0c0.94,-0.099 0.171,-0.179 -1.708,-0.179c-1.88,0 -2.648,0.08 -1.709,0.179m-139.059,37.139c-0.004,0.689 0.198,1.253 0.449,1.253c0.576,0 0.576,-0.931 0,-1.822c-0.344,-0.533 -0.443,-0.407 -0.449,0.569m1.634,3.836c0.679,2.258 0.946,2.727 1.332,2.341c0.25,-0.249 -1.424,-4.468 -1.773,-4.468c-0.11,0 0.089,0.957 0.441,2.127m1.339,3.309c-0.165,0.268 -0.115,0.486 0.11,0.486c0.226,0 0.783,1.23 1.238,2.734c0.455,1.503 0.991,2.733 1.191,2.733c0.199,0 0.496,0.71 0.659,1.579c0.285,1.52 1.567,3.256 1.567,2.122c0,-0.282 -0.161,-0.512 -0.358,-0.512c-0.197,0 -0.377,-0.358 -0.399,-0.797c-0.102,-1.939 -3.541,-9.1 -4.008,-8.345m54.037,1.727c1.338,0.141 1.773,0.441 2.225,1.532c0.309,0.746 0.652,1.267 0.762,1.157c0.821,-0.821 -1.381,-3.013 -2.954,-2.942l-1.697,0.077l1.664,0.176m82.141,0.247c-0.122,0.318 -0.167,5.904 -0.1,12.415l0.122,11.838l3.189,0l3.189,0l0.129,-5.633l0.128,-5.633l5.894,5.747c5.456,5.32 7.219,6.51 7.932,5.357c0.132,-0.215 -0.24,-0.298 -0.828,-0.186c-0.87,0.166 -2.162,-0.855 -6.98,-5.524c-3.252,-3.15 -6.045,-5.595 -6.208,-5.433c-0.162,0.162 -0.294,2.721 -0.294,5.686l0,5.391l-2.962,0l-2.961,0l0,-12.041l0,-12.042l1.025,-0.197l1.025,-0.197l-1.039,-0.063c-0.572,-0.034 -1.139,0.198 -1.261,0.515m-117.074,11.952l0.012,12.301l2.248,0.142c4.081,0.258 4.358,0.046 4.358,-3.34l0,-2.953l2.976,0c4.482,0 8.234,-2.263 9.063,-5.467c0.258,-0.997 0.201,-0.969 -0.459,0.228c-2.011,3.644 -4.183,4.777 -9.168,4.781l-2.826,0.003l-0.135,3.075l-0.135,3.075l-2.839,0.135l-2.84,0.136l-0.133,-12.208l-0.133,-12.209l0.011,12.301m14.196,-11.017c1.686,0.815 2.67,1.684 3.526,3.113c0.653,1.09 1.19,1.755 1.192,1.479c0.015,-1.705 -3.387,-4.956 -5.69,-5.437c-0.963,-0.201 -0.676,0.049 0.972,0.845m53.47,1.656l0,2.711l-2.848,0.162l-2.847,0.162l3.075,0.088l3.075,0.088l0,-2.962c0,-1.628 -0.102,-2.961 -0.228,-2.961c-0.125,0 -0.227,1.22 -0.227,2.712m6.112,0.021c0.037,2.874 0.075,2.966 1.279,3.105l1.24,0.143l0.14,6.463l0.14,6.463l0.1,-6.72l0.1,-6.72l-1.345,0c-1.327,0 -1.347,-0.037 -1.519,-2.847l-0.174,-2.848l0.039,2.961m11.74,-0.113c-0.085,2.841 -0.088,2.847 -1.451,2.847l-1.367,0l0.1,6.72l0.101,6.72l0.139,-6.492l0.14,-6.492l1.141,0c1.423,0 1.664,-0.613 1.45,-3.699l-0.169,-2.452l-0.084,2.848m7.508,-2.316c-0.652,0.652 -0.342,23.243 0.327,23.798c0.431,0.358 2.915,0.483 7.859,0.397l7.228,-0.125l0,-2.962l0,-2.961l-4.442,-0.13l-4.442,-0.131l0,-1.788l0,-1.788l3.987,-0.132l3.986,-0.131l0,-2.734l0,-2.733l-3.986,-0.132l-3.987,-0.131l0,-1.333l0,-1.332l4.442,-0.131l4.442,-0.13l0.136,-2.848c0.084,-1.767 -0.046,-2.847 -0.342,-2.847c-0.279,0 -0.477,1.127 -0.477,2.716l0,2.717l-4.214,0.131l-4.214,0.131l0,1.594l0,1.595l3.986,0.131l3.986,0.132l0,2.47l0,2.471l-3.986,0.131l-3.986,0.132l0,2.05l0,2.05l4.441,0.13l4.442,0.131l0,2.728l0,2.728l-7.403,-0.125l-7.403,-0.125l0,-11.959c0,-6.578 -0.017,-11.959 -0.038,-11.959c-0.021,0 -0.175,0.137 -0.342,0.304m32.036,5.277c3.128,3.195 5.845,5.809 6.036,5.809c0.192,0 0.305,-2.614 0.251,-5.809l-0.098,-5.809l-0.144,5.353c-0.08,2.944 -0.289,5.353 -0.465,5.353c-0.176,0 -2.784,-2.409 -5.794,-5.353l-5.474,-5.353l5.688,5.809m19.233,-2.734l0.136,2.848l2.847,0.135l2.848,0.136l0,8.806c0,10.174 -0.092,9.949 3.948,9.739l2.658,-0.137l0.123,-9.226l0.123,-9.225l2.952,0l2.952,0l-0.088,-3.076l-0.088,-3.075l-0.161,2.826l-0.161,2.827l-2.826,0.135l-2.826,0.135l-0.124,9.247l-0.123,9.247l-2.838,-0.136l-2.838,-0.135l-0.123,-9.226l-0.123,-9.225l-2.993,0l-2.992,0l0.154,-2.734c0.085,-1.504 -0.009,-2.734 -0.209,-2.734c-0.2,0.001 -0.302,1.282 -0.228,2.848m-112.311,0.135c-1.07,2.245 -0.919,2.627 0.199,0.506c0.509,-0.964 0.844,-1.832 0.745,-1.931c-0.098,-0.098 -0.523,0.543 -0.944,1.425m6.721,1.797c0.779,1.865 1.592,3.322 1.612,2.89c0.024,-0.527 -1.764,-4.48 -2.026,-4.48c-0.138,0 0.049,0.716 0.414,1.59m-32.543,4.105l0,3.417l2.663,0c3.226,0 4.171,-0.792 4.171,-3.496c0,-2.551 -1.002,-3.338 -4.25,-3.338l-2.584,0l0,3.417m46.802,-3.086l2.838,0.166l0.123,9.205l0.123,9.205l2.686,0.138c1.478,0.076 2.852,-0.026 3.055,-0.228c0.202,-0.201 -0.951,-0.297 -2.563,-0.214l-2.931,0.153l-0.123,-9.264l-0.124,-9.264l-2.961,-0.031l-2.961,-0.032l2.838,0.166m-41.305,0.596c0.66,0.353 0.881,0.96 0.881,2.415c0,2.529 -0.586,3.036 -3.508,3.036l-2.414,0l0,-2.961l0,-2.961l2.08,0c1.144,0 2.476,0.212 2.961,0.471m17.776,2.054c-1.293,2.923 -1.16,3.2 0.242,0.505c0.632,-1.215 1.05,-2.308 0.928,-2.429c-0.121,-0.122 -0.648,0.744 -1.17,1.924m-10.38,0.664c0,1.378 0.085,1.942 0.19,1.252c0.104,-0.689 0.104,-1.816 0,-2.505c-0.105,-0.689 -0.19,-0.126 -0.19,1.253m21.896,0.601c0.793,1.899 2.071,4.275 2.095,3.897c0.031,-0.485 -2.234,-5.41 -2.488,-5.41c-0.132,0 0.045,0.681 0.393,1.513m-54.379,1.449c0.274,0.719 0.274,1.558 0,2.278c-0.248,0.652 -0.258,1.139 -0.025,1.139c0.676,0 1.033,-2.613 0.495,-3.618c-0.697,-1.302 -0.993,-1.176 -0.47,0.201m47.353,0.975c-0.498,1.163 -0.823,2.198 -0.721,2.3c0.102,0.102 0.563,-0.73 1.026,-1.849c0.463,-1.119 1.032,-1.918 1.264,-1.774c0.232,0.143 0.275,0.024 0.097,-0.265c-0.516,-0.835 -0.704,-0.656 -1.666,1.588m-6.822,1.34c-0.959,2.238 -1.164,3.205 -0.401,1.895c0.792,-1.36 1.81,-3.982 1.546,-3.982c-0.138,0 -0.653,0.939 -1.145,2.087m8.691,-2.029c-0.01,0.157 0.289,1.022 0.664,1.921c0.941,2.252 0.961,2.228 -1.594,2.051c-1.253,-0.087 -2.279,-0.004 -2.278,0.184c0,0.188 1.127,0.341 2.506,0.341c2.09,0 2.502,-0.132 2.486,-0.797c-0.018,-0.746 -1.742,-4.323 -1.784,-3.7m7.898,4.156c1.624,3.754 3.127,6.761 3.296,6.593c0.215,-0.216 -3.409,-8.074 -3.724,-8.074c-0.117,0 0.076,0.666 0.428,1.481m-18.867,2.885c-0.959,2.237 -1.164,3.204 -0.401,1.894c0.792,-1.359 1.81,-3.982 1.546,-3.982c-0.138,0 -0.653,0.939 -1.145,2.088m-40.207,-0.721c-0.131,0.501 -0.076,0.911 0.121,0.911c0.198,0 0.467,-0.41 0.599,-0.911c0.131,-0.501 0.076,-0.912 -0.122,-0.912c-0.198,0 -0.467,0.411 -0.598,0.912m-0.779,2.278c0,0.501 -0.239,0.911 -0.532,0.911c-0.292,0 -0.378,0.153 -0.19,0.341c0.187,0.187 0.631,-0.057 0.987,-0.543c0.758,-1.037 0.827,-1.621 0.19,-1.621c-0.25,0 -0.455,0.41 -0.455,0.912m51.09,1.25l4.848,0.146l0.562,1.358c0.879,2.121 6.882,2.675 7.18,0.662c0.123,-0.833 0.092,-0.842 -0.36,-0.113c-1.013,1.631 -5.314,1.098 -6.433,-0.798l-0.941,-1.594l-4.852,0.096l-4.853,0.097l4.849,0.146m-12.008,1.288c-0.715,1.569 0.014,2.001 3.39,2.01c2.515,0.007 4.857,-1.562 3.844,-2.576c-0.153,-0.152 -0.483,0.264 -0.734,0.926c-0.422,1.11 -0.661,1.202 -3.126,1.202c-3.09,0 -3.366,-0.162 -2.803,-1.642c0.556,-1.462 0.103,-1.399 -0.571,0.08m-40.957,1.41c-0.572,1.211 -1.119,2.356 -1.215,2.544c-0.096,0.188 -0.003,0.341 0.207,0.341c0.469,0 2.596,-4.538 2.277,-4.858c-0.126,-0.126 -0.697,0.762 -1.269,1.973m97.547,0.152l-6.151,0.268l6.01,0.094c3.62,0.056 6.122,-0.088 6.291,-0.362c0.155,-0.251 0.218,-0.414 0.141,-0.362c-0.078,0.051 -2.909,0.214 -6.291,0.362m-100.258,6.492c-0.286,1.065 -0.734,2.069 -0.995,2.232c-0.261,0.162 -0.349,0.624 -0.195,1.025c0.254,0.66 3.297,0.719 32.299,0.618l32.019,-0.11l-31.978,-0.12l-31.978,-0.121l1.112,-2.515c1.256,-2.841 1.28,-2.945 0.675,-2.945c-0.241,0 -0.672,0.871 -0.959,1.936m106.75,3.872c12.215,0.068 32.204,0.068 44.419,0c12.215,-0.067 2.221,-0.123 -22.21,-0.123c-24.43,0 -34.424,0.056 -22.209,0.123m132.38,8.656c11.608,0.068 30.469,0.068 41.914,0c11.445,-0.068 1.947,-0.123 -21.105,-0.123c-23.053,0 -32.416,0.055 -20.809,0.123m94.157,-0.011c23.246,0.312 57.176,0.319 57.176,0.011c0,-0.188 -14.915,-0.295 -33.144,-0.237c-18.229,0.057 -29.043,0.159 -24.032,0.226m55.427,2.195c-0.635,1.395 -0.65,1.575 -0.127,1.575c0.361,0 1.048,-2.338 0.771,-2.622c-0.063,-0.063 -0.352,0.408 -0.644,1.047m-1.117,2.942c-0.131,0.501 -0.076,0.911 0.122,0.911c0.198,0 0.467,-0.41 0.598,-0.911c0.131,-0.502 0.076,-0.912 -0.122,-0.912c-0.198,0 -0.467,0.41 -0.598,0.912m-2.027,4.783c-0.269,0.877 -0.337,1.595 -0.152,1.595c0.185,0 0.556,-0.718 0.825,-1.595c0.27,-0.877 0.338,-1.594 0.153,-1.594c-0.185,0 -0.556,0.717 -0.826,1.594m-127.567,-0.812c0.689,0.104 1.816,0.104 2.505,0c0.689,-0.105 0.126,-0.19 -1.253,-0.19c-1.378,0 -1.941,0.085 -1.252,0.19m77.595,0.389c-0.394,0.394 -0.716,0.952 -0.716,1.24c0,0.289 0.309,0.083 0.687,-0.457c0.378,-0.539 1.147,-1.069 1.709,-1.178c1.017,-0.196 1.017,-0.197 0.028,-0.259c-0.546,-0.034 -1.314,0.26 -1.708,0.654m-114.505,11.927l0.121,12.186l3.19,0l3.189,0l0.033,-3.077l0.034,-3.077l-0.168,2.963l-0.169,2.964l-2.94,0l-2.941,0l0,-11.846l0,-11.845l6.165,0c4.353,0 6.63,0.194 7.745,0.661c0.869,0.363 1.58,0.557 1.58,0.432c0,-0.949 -3.702,-1.548 -9.56,-1.548l-6.4,0l0.121,12.187m32.468,-11.296c-3.035,1.45 -6.179,4.938 -6.132,6.803c0.01,0.404 0.423,-0.078 0.918,-1.071c1.292,-2.59 3.06,-4.311 5.669,-5.517c1.253,-0.58 2.073,-1.061 1.823,-1.07c-0.251,-0.009 -1.276,0.376 -2.278,0.855m10.934,0.186c2.89,1.46 3.483,1.953 4.953,4.119c1.422,2.096 1.61,1.729 0.245,-0.479c-1.104,-1.786 -4.24,-4.079 -6.153,-4.5c-0.916,-0.202 -0.622,0.063 0.955,0.86m14.912,11.11l0.122,12.186l3.189,0l3.189,0l0.134,-3.303c0.14,-3.46 1.405,-4.534 3.219,-2.733c0.46,0.457 0.513,0.411 0.268,-0.232c-0.338,-0.887 -2.102,-1.492 -3.164,-1.084c-0.525,0.201 -0.685,1.062 -0.685,3.693l0,3.432l-2.961,0l-2.961,0l0,-11.846l0,-11.845l6.281,0c10.468,0 14.778,4.331 11.693,11.746c-0.647,1.554 -0.645,1.634 0.025,0.969c0.974,-0.967 1.392,-5.316 0.71,-7.381c-1.537,-4.659 -3.966,-5.766 -12.68,-5.779l-6.5,-0.01l0.121,12.187m24.951,-11.846c-0.001,0.188 3.997,0.283 8.883,0.21l8.885,-0.133l0,2.524l0,2.525l-2.241,0c-3.907,0 -3.682,-0.589 -3.682,9.616l0,9.063l-2.733,0l-2.734,0l0,-8.828c0,-10.212 0.092,-9.985 -3.948,-9.733l-2.658,0.165l2.838,0.086l2.838,0.086l0.123,9.226l0.124,9.225l3.293,0.134l3.294,0.134l0.123,-9.246l0.123,-9.245l2.848,-0.135l2.847,-0.136l0,-2.94l0,-2.939l-9.111,0c-5.012,0 -9.112,0.154 -9.112,0.341m51.23,0.236c-0.121,0.318 -0.166,5.802 -0.099,12.187l0.122,11.609l7.631,0.017l7.632,0.017l-7.526,-0.142l-7.525,-0.142l0.122,-11.72l0.121,-11.72l2.848,-0.135l2.847,-0.136l0,9.103l0,9.103l4.557,0.144c2.506,0.08 4.556,-0.009 4.556,-0.197c-0.001,-0.188 -1.949,-0.342 -4.329,-0.342l-4.328,0l0,-9.112l0,-9.111l-3.204,0c-2.165,0 -3.275,0.187 -3.425,0.577m-117.354,2.498c0.571,0.814 1.134,1.481 1.251,1.481c0.394,0 -0.673,-1.664 -1.485,-2.316c-0.571,-0.458 -0.503,-0.216 0.234,0.835m95.265,1.291c-0.959,2.237 -1.164,3.204 -0.401,1.894c0.792,-1.359 1.81,-3.982 1.546,-3.982c-0.138,0 -0.653,0.939 -1.145,2.088m6.432,-1.405c0,0.251 0.393,1.173 0.873,2.05c0.481,0.877 0.873,1.39 0.873,1.139c0,-0.25 -0.392,-1.173 -0.873,-2.05c-0.48,-0.877 -0.873,-1.389 -0.873,-1.139m43.804,1.942c-0.502,1.187 -1.066,2.671 -1.254,3.297c-0.188,0.627 -0.621,1.544 -0.963,2.038c-0.343,0.494 -0.62,1.212 -0.617,1.594c0.008,1.015 1.971,-2.584 2.987,-5.475c0.48,-1.367 1.05,-2.613 1.267,-2.769c0.216,-0.157 0.191,-0.411 -0.057,-0.564c-0.248,-0.153 -0.861,0.693 -1.363,1.879m-143.811,0.974c0.166,0.602 0.302,2.057 0.302,3.234c0,1.177 -0.136,2.633 -0.302,3.234c-0.285,1.031 -0.269,1.042 0.273,0.183c0.316,-0.501 0.575,-2.038 0.575,-3.417c0,-1.378 -0.259,-2.915 -0.575,-3.416c-0.542,-0.859 -0.558,-0.848 -0.273,0.182m-12.369,0.207c-0.13,0.34 -0.175,1.929 -0.1,3.531l0.138,2.913l2.569,0.135c4.06,0.214 6.061,-3.391 3.374,-6.078c-1.295,-1.295 -5.54,-1.65 -5.981,-0.501m30.081,-0.131c-0.766,0.223 -1.893,0.973 -2.506,1.668l-1.114,1.263l1.18,-1.036c1.625,-1.427 3.698,-1.952 5.616,-1.422c5.087,1.404 5.457,9.461 0.532,11.605c-0.81,0.353 -1.074,0.62 -0.624,0.63c1.327,0.03 3.952,-2.66 4.469,-4.58c0.899,-3.339 -0.956,-6.883 -4.255,-8.13c-1.449,-0.547 -1.406,-0.547 -3.298,0.002m28.347,-0.183c-0.167,0.168 -0.304,1.603 -0.304,3.19l0,2.885l2.392,-0.082l2.392,-0.082l-2.164,-0.171l-2.164,-0.171l0,-2.708l0,-2.709l1.792,0c0.986,0 2.37,0.207 3.076,0.459c1.196,0.427 1.223,0.412 0.398,-0.228c-0.884,-0.686 -4.836,-0.964 -5.418,-0.383m-52.907,0.791c2.591,1.895 0.711,5.739 -2.806,5.739l-2.45,0l0,-3.189l0,-3.189l2.191,0c1.205,0 2.584,0.288 3.065,0.639m59.087,2.095c0,0.877 0.094,1.236 0.208,0.797c0.115,-0.438 0.115,-1.156 0,-1.594c-0.114,-0.439 -0.208,-0.08 -0.208,0.797m39.546,-0.486c-0.259,0.484 -0.689,1.458 -0.956,2.164c-0.715,1.894 0.288,0.728 1.15,-1.336c0.747,-1.789 0.617,-2.344 -0.194,-0.828m11.114,1.165c0.78,1.865 1.593,3.322 1.612,2.889c0.024,-0.526 -1.764,-4.479 -2.026,-4.479c-0.137,0 0.049,0.715 0.414,1.59m-71.54,2.054c0.025,1.88 -0.111,4.032 -0.303,4.784c-0.277,1.089 -0.247,1.2 0.15,0.547c0.73,-1.205 1.042,-5.317 0.542,-7.153c-0.372,-1.367 -0.427,-1.107 -0.389,1.822m-17.883,0.592c-0.099,3.237 2.211,6.719 4.436,6.687c0.405,-0.005 0.052,-0.347 -0.784,-0.759c-2.057,-1.014 -2.983,-2.577 -3.31,-5.588l-0.275,-2.526l-0.067,2.186m83.568,-1.617c-0.549,0.546 -1.664,3.421 -1.421,3.664c0.121,0.122 0.431,-0.334 0.689,-1.012c0.258,-0.678 0.681,-1.629 0.94,-2.113c0.486,-0.907 0.396,-1.139 -0.208,-0.539m0.938,1.481c0.154,0.626 0.567,1.703 0.918,2.392l0.637,1.253l-2.024,0c-1.193,0 -2.118,-0.234 -2.253,-0.57c-0.138,-0.34 -0.245,-0.248 -0.266,0.228c-0.03,0.667 0.373,0.797 2.47,0.797c2.856,0 2.82,0.08 1.344,-2.961c-0.609,-1.253 -0.98,-1.766 -0.826,-1.139m-8.166,0.55c-0.133,0.324 -0.571,1.358 -0.973,2.297c-0.402,0.94 -0.618,1.709 -0.481,1.709c0.334,0 2.114,-4.178 1.88,-4.412c-0.101,-0.101 -0.292,0.082 -0.426,0.406m15.329,1.874c0.828,1.983 2.072,4.27 2.095,3.853c0.03,-0.542 -2.188,-5.366 -2.468,-5.366c-0.143,0 0.025,0.681 0.373,1.513m35.864,-1.19c-0.05,0.74 1.469,3.752 1.899,3.766c0.188,0.006 0.341,-0.296 0.341,-0.672c0,-0.376 -0.204,-0.683 -0.454,-0.683c-0.25,0 -0.745,-0.667 -1.102,-1.481c-0.356,-0.814 -0.664,-1.233 -0.684,-0.93m-142.759,2.172c-0.84,1.053 -1.985,1.806 -3.417,2.246c-1.343,0.413 -1.756,0.675 -1.098,0.694c1.752,0.053 4.587,-1.83 5.609,-3.727c0.655,-1.215 0.3,-0.96 -1.094,0.787m57.79,-0.255c-0.727,0.803 -0.405,2.771 0.453,2.771c0.126,0 0,-0.427 -0.28,-0.949c-0.405,-0.757 -0.348,-1.125 0.283,-1.822c0.434,-0.48 0.687,-0.873 0.562,-0.873c-0.125,0 -0.583,0.393 -1.018,0.873m-48.531,1.489c-0.103,1.414 2.858,5.417 4.71,6.367c0.529,0.272 0.116,-0.243 -0.917,-1.143c-1.034,-0.901 -2.305,-2.515 -2.825,-3.587c-0.52,-1.072 -0.955,-1.809 -0.968,-1.637m79.334,2.444c-1.372,2.824 -1.219,3.22 0.195,0.502c0.632,-1.214 1.071,-2.286 0.976,-2.381c-0.096,-0.096 -0.622,0.75 -1.171,1.879m56.027,-1.223c1.621,4.202 3.407,8.256 3.638,8.259c0.405,0.004 -0.891,-4.215 -1.391,-4.529c-0.22,-0.139 -0.66,-1.123 -0.978,-2.188c-0.318,-1.065 -0.768,-1.936 -1,-1.936c-0.231,0 -0.353,0.177 -0.269,0.394m-113.414,1.789l-1.037,1.689l1.151,-1.278c0.633,-0.703 1.151,-1.472 1.151,-1.708c0,-0.67 -0.154,-0.513 -1.265,1.297m27.61,-0.53c1.007,1.837 2.023,2.835 1.243,1.223c-0.386,-0.798 -0.929,-1.592 -1.207,-1.763c-0.361,-0.223 -0.371,-0.07 -0.036,0.54m50.845,1.304c0.779,1.864 1.592,3.322 1.612,2.889c0.024,-0.526 -1.764,-4.479 -2.027,-4.479c-0.137,0 0.049,0.715 0.415,1.59m-57.144,0.688c0.511,1.002 1.032,1.822 1.157,1.822c0.125,0 -0.191,-0.82 -0.702,-1.822c-0.511,-1.003 -1.032,-1.823 -1.157,-1.823c-0.126,0 0.19,0.82 0.702,1.823m41.138,1.594c-0.905,1.897 -6.173,2.525 -6.683,0.797c-0.183,-0.621 -0.214,-0.595 -0.142,0.114c0.081,0.797 0.478,0.928 3.16,1.046l3.068,0.135l0.77,-1.616l0.771,-1.615l4.479,0l4.478,0l0.761,1.595l0.76,1.594l3.219,-0.08l3.218,-0.081l-3.082,-0.261c-2.872,-0.243 -3.143,-0.362 -3.98,-1.742l-0.897,-1.48l-4.57,0l-4.57,0l-0.76,1.594m-65.225,-0.21c-2.395,1.996 -8.249,2.748 -11.752,1.51c-0.699,-0.247 -0.739,-0.191 -0.243,0.341c1.019,1.096 8.103,0.85 10.341,-0.358c2.212,-1.194 3.81,-2.393 3.189,-2.392c-0.25,0 -0.941,0.405 -1.535,0.899m32.717,0.294c0.265,0.547 0.481,1.111 0.481,1.253c0,0.538 -6.658,0.25 -7.225,-0.312c-0.46,-0.457 -0.512,-0.408 -0.263,0.245c0.268,0.706 0.801,0.798 3.976,0.684c3.846,-0.138 4.444,-0.5 3.265,-1.972c-0.694,-0.867 -0.7,-0.864 -0.234,0.102m88.408,6.673c0,0.552 1.303,3.494 1.548,3.494c0.308,0 -0.662,-2.853 -1.154,-3.394c-0.217,-0.238 -0.394,-0.283 -0.394,-0.1m1.823,4.633c0,0.375 0.205,0.683 0.455,0.683c0.251,0 0.456,-0.308 0.456,-0.683c0,-0.376 -0.205,-0.684 -0.456,-0.684c-0.25,0 -0.455,0.308 -0.455,0.684m-256.492,6.15c0,0.25 0.41,0.456 0.911,0.456c0.501,0 0.911,-0.206 0.911,-0.456c0,-0.251 -0.41,-0.456 -0.911,-0.456c-0.501,0 -0.911,0.205 -0.911,0.456m10.934,0c0,0.25 0.307,0.456 0.683,0.456c0.376,0 0.683,-0.206 0.683,-0.456c0,-0.251 -0.307,-0.456 -0.683,-0.456c-0.376,0 -0.683,0.205 -0.683,0.456" id="path2"/>
   <path fill-rule="evenodd" fill="#1ea9c6" d="m251.159,61.096c-0.318,0.318 -1.954,0.444 -4.419,0.342c-2.154,-0.089 -3.916,-0.009 -3.915,0.179c0,0.188 -0.911,0.342 -2.024,0.342c-1.112,0 -2.157,0.217 -2.321,0.482c-0.164,0.266 -0.74,0.44 -1.28,0.388c-0.54,-0.052 -1.289,0.02 -1.665,0.16c-0.545,0.202 -4.534,1.247 -7.061,1.848c-0.251,0.06 -0.712,0.269 -1.025,0.465c-0.313,0.195 -0.775,0.229 -1.025,0.074c-0.251,-0.155 -0.456,-0.065 -0.456,0.201c0,0.265 -0.211,0.482 -0.47,0.482c-0.259,0 -1.157,0.287 -1.995,0.637l-1.526,0.638l0.65,2.438c0.929,3.485 1.955,11.451 1.965,15.255c0.008,2.862 0.118,3.278 0.921,3.488c0.501,0.131 0.911,0.101 0.911,-0.067c0,-0.745 10.293,-4.79 11.252,-4.421c0.326,0.125 0.593,0.004 0.593,-0.268c0,-0.281 0.49,-0.4 1.139,-0.276c0.626,0.12 1.139,0.019 1.139,-0.225c0,-0.243 0.714,-0.359 1.587,-0.257c0.873,0.102 1.659,-0.029 1.746,-0.291c0.237,-0.709 17.262,-0.652 17.498,0.059c0.115,0.342 0.746,0.444 1.747,0.282c0.904,-0.147 1.567,-0.063 1.567,0.198c0,0.248 0.513,0.354 1.139,0.234c0.627,-0.12 1.14,-0.04 1.141,0.177c0.002,0.217 0.668,0.429 1.481,0.472c0.813,0.042 2.094,0.4 2.845,0.794c0.752,0.395 1.623,0.719 1.937,0.72c0.313,0.002 0.569,0.22 0.569,0.486c0,0.265 0.208,0.354 0.461,0.197c1.916,-1.184 16.045,8.312 21.65,14.549c5.149,5.731 11.539,15.894 10.953,17.421c-0.191,0.496 1.83,0.608 11.028,0.608l11.261,0l0,-1.139c0,-0.627 -0.131,-1.139 -0.292,-1.139c-0.161,0 -0.452,-0.564 -0.646,-1.253c-0.463,-1.639 -1.181,-3.449 -2.486,-6.264c-0.232,-0.502 -0.479,-1.214 -0.549,-1.584c-0.07,-0.37 -0.392,-0.958 -0.717,-1.306c-0.324,-0.348 -0.514,-0.861 -0.42,-1.141c0.093,-0.279 -0.3,-1.013 -0.873,-1.631c-0.573,-0.618 -1.295,-1.75 -1.604,-2.515c-0.309,-0.765 -0.687,-1.493 -0.839,-1.618c-0.153,-0.126 -0.766,-1.031 -1.363,-2.013c-4.711,-7.747 -18.1,-20.787 -25.063,-24.41c-0.626,-0.326 -1.241,-0.716 -1.367,-0.867c-0.367,-0.441 -8.062,-4.145 -8.611,-4.145c-0.275,0 -0.5,-0.205 -0.5,-0.456c0,-0.251 -0.154,-0.417 -0.342,-0.369c-0.669,0.169 -5.581,-1.627 -5.581,-2.041c0,-0.231 -0.301,-0.306 -0.668,-0.164c-0.368,0.141 -0.79,0.06 -0.939,-0.179c-0.148,-0.24 -0.769,-0.436 -1.381,-0.436c-0.611,0 -1.112,-0.186 -1.112,-0.413c0,-0.227 -0.41,-0.306 -0.911,-0.175c-0.532,0.14 -0.911,0.014 -0.911,-0.301c0,-0.331 -0.35,-0.428 -0.907,-0.251c-0.499,0.158 -1.155,0.134 -1.458,-0.053c-0.613,-0.379 -1.33,-0.513 -4.811,-0.904c-1.315,-0.148 -2.391,-0.403 -2.391,-0.567c0,-0.163 -1.845,-0.226 -4.1,-0.138c-2.774,0.108 -4.101,-0.003 -4.101,-0.342c0,-0.652 -2.402,-0.65 -3.055,0.003m-72.583,50.323c-0.244,0.643 -0.444,1.36 -0.444,1.595c0,0.234 -0.154,0.426 -0.342,0.426c-0.187,0 -0.373,0.553 -0.412,1.228c-0.04,0.675 -0.355,1.443 -0.7,1.708c-0.346,0.264 -0.555,0.839 -0.465,1.278c0.09,0.438 -0.037,0.797 -0.283,0.797c-0.245,0 -0.345,0.387 -0.221,0.86c0.123,0.473 0.021,0.985 -0.228,1.139c-0.249,0.154 -0.345,0.69 -0.214,1.191c0.142,0.544 0.014,0.91 -0.32,0.91c-0.308,0 -0.44,0.306 -0.295,0.684c0.338,0.88 -0.134,2.122 -0.679,1.786c-0.246,-0.152 -0.296,0.507 -0.121,1.597c0.186,1.164 0.121,1.856 -0.174,1.856c-0.285,0 -0.375,0.71 -0.229,1.8c0.133,0.991 0.082,2.17 -0.113,2.62c-0.328,0.758 -0.311,6.549 0.02,6.895c0.508,0.529 8.912,-5.855 12.78,-9.707c5.779,-5.756 12.953,-16.495 12.953,-19.389c0,-0.273 -3.845,-0.442 -10.034,-0.442l-10.034,0l-0.445,1.168m-2.895,52.028c0.411,0.27 3.549,8.148 3.943,9.902c0.057,0.25 0.205,0.558 0.33,0.683c0.126,0.125 1.023,1.765 1.993,3.645c1.971,3.815 3.67,6.829 4.237,7.517c0.207,0.251 1.593,2.096 3.08,4.1c4.622,6.23 12.69,13.898 18.605,17.682c1.319,0.843 2.753,1.888 3.187,2.322c0.434,0.435 0.789,0.664 0.789,0.51c0,-0.341 4.217,2.06 4.607,2.624c0.153,0.221 0.358,0.36 0.455,0.309c0.098,-0.05 0.895,0.207 1.772,0.573c0.877,0.366 2.377,0.923 3.335,1.239c0.957,0.315 1.85,0.859 1.984,1.208c0.134,0.349 0.414,0.529 0.623,0.4c0.58,-0.358 5.971,1.254 6.202,1.855c0.111,0.29 0.704,0.432 1.318,0.314c0.614,-0.117 1.116,-0.013 1.116,0.233c0,0.245 0.513,0.347 1.139,0.227c0.627,-0.119 1.139,-0.04 1.139,0.177c0,0.218 0.564,0.431 1.253,0.475c3.429,0.218 5.33,0.533 5.454,0.905c0.075,0.226 1.57,0.33 3.321,0.231c2.142,-0.121 3.184,-0.014 3.184,0.327c0,0.333 1.333,0.507 3.873,0.507c2.532,0 3.872,-0.175 3.872,-0.505c0,-0.341 1.114,-0.449 3.414,-0.333c1.878,0.095 3.477,-0.017 3.554,-0.248c0.077,-0.232 0.847,-0.461 1.711,-0.51c0.865,-0.049 1.879,-0.211 2.255,-0.36c0.376,-0.149 2.367,-0.602 4.425,-1.006c2.058,-0.405 4.313,-1.018 5.012,-1.362c0.698,-0.345 1.884,-0.692 2.636,-0.771c0.752,-0.079 1.572,-0.386 1.822,-0.682c0.251,-0.296 0.866,-0.603 1.367,-0.683c0.501,-0.08 1.014,-0.248 1.139,-0.373c0.125,-0.126 2.218,-1.214 4.65,-2.419c5.61,-2.78 12.971,-7.615 16.085,-10.565c0.793,-0.752 2.299,-2.139 3.345,-3.081c4.664,-4.202 12.285,-14.38 15.346,-20.496c0.721,-1.441 1.467,-2.619 1.657,-2.619c0.19,0 0.228,-0.308 0.084,-0.684c-0.144,-0.376 -0.023,-0.683 0.269,-0.683c0.292,0 0.413,-0.191 0.269,-0.424c-0.144,-0.233 -0.082,-0.536 0.138,-0.672c0.221,-0.136 0.661,-1.175 0.978,-2.309c0.318,-1.134 0.756,-2.062 0.974,-2.062c0.218,0 0.363,-0.154 0.321,-0.342c-0.146,-0.668 0.636,-2.847 1.021,-2.847c0.216,0 0.266,-0.328 0.112,-0.729c-0.153,-0.402 0.007,-0.911 0.356,-1.132c0.379,-0.24 -4.028,-0.406 -10.867,-0.41c-9.618,-0.006 -11.503,0.099 -11.503,0.638c0,1.958 -5.931,11.434 -10.343,16.526c-4.107,4.741 -13.267,11.778 -17.742,13.631c-0.966,0.4 -2.781,1.2 -4.034,1.777c-1.253,0.577 -2.995,1.194 -3.872,1.372c-0.877,0.177 -1.845,0.524 -2.151,0.77c-0.306,0.247 -1.381,0.479 -2.389,0.517c-1.008,0.038 -1.835,0.246 -1.836,0.463c-0.001,0.216 -0.618,0.303 -1.369,0.193c-0.752,-0.111 -1.367,-0.061 -1.367,0.11c0,1.405 -20.324,1.036 -21.407,-0.39c-0.128,-0.168 -1.028,-0.355 -2.001,-0.414c-0.972,-0.059 -1.997,-0.291 -2.277,-0.517c-0.281,-0.225 -1.177,-0.552 -1.992,-0.726c-0.814,-0.174 -1.48,-0.499 -1.48,-0.722c0,-0.222 -0.271,-0.301 -0.602,-0.174c-0.331,0.127 -1.817,-0.367 -3.303,-1.097c-1.485,-0.73 -3.162,-1.47 -3.726,-1.643c-0.564,-0.173 -1.025,-0.505 -1.025,-0.739c0,-0.234 -0.231,-0.425 -0.512,-0.425c-0.282,0 -1.768,-0.833 -3.303,-1.852c-9.018,-5.985 -16.664,-14.73 -20.787,-23.775l-1.594,-3.499l-11.39,-0.008c-6.264,-0.005 -11.16,0.142 -10.879,0.326" id="path3"/>
   <path fill-rule="evenodd" fill="#71ccd5" d="m137.585,8.65c-0.375,0.253 -1.554,0.335 -2.619,0.181c-1.358,-0.195 -1.936,-0.115 -1.936,0.269c0,0.389 -0.544,0.455 -1.88,0.23c-1.215,-0.206 -1.781,-0.157 -1.599,0.138c0.244,0.395 -1.365,0.847 -3.811,1.072c-0.376,0.034 -0.937,0.263 -1.247,0.507c-0.31,0.244 -0.874,0.325 -1.253,0.18c-0.379,-0.145 -0.689,-0.052 -0.689,0.208c0,0.264 -0.4,0.344 -0.911,0.182c-0.523,-0.166 -0.911,-0.082 -0.911,0.197c0,0.268 -0.294,0.487 -0.654,0.487c-0.359,0 -1.231,0.238 -1.936,0.529c-0.705,0.291 -1.436,0.496 -1.624,0.455c-0.188,-0.04 -0.342,0.156 -0.342,0.436c0,0.284 -0.402,0.403 -0.912,0.27c-0.501,-0.131 -0.797,-0.053 -0.656,0.174c0.14,0.228 -0.016,0.414 -0.348,0.414c-0.332,0 -1.391,0.422 -2.354,0.938c-0.962,0.516 -1.852,0.836 -1.978,0.711c-0.125,-0.125 -0.662,0.178 -1.194,0.674c-0.533,0.495 -1.485,1.027 -2.116,1.181c-0.631,0.154 -1.251,0.41 -1.376,0.569c-0.125,0.158 -1.253,0.948 -2.506,1.754c-1.252,0.806 -2.755,1.823 -3.339,2.261c-0.583,0.437 -1.61,1.103 -2.28,1.479c-0.671,0.376 -1.679,1.144 -2.242,1.708c-0.562,0.564 -1.33,1.025 -1.706,1.025c-0.376,0 -0.683,0.221 -0.683,0.491c0,0.685 -8.668,9.333 -9.2,9.179c-0.239,-0.069 -0.296,0.1 -0.126,0.375c0.391,0.633 -1.581,2.782 -2.2,2.399c-0.253,-0.156 -0.326,-0.067 -0.162,0.199c0.165,0.266 -0.757,2.091 -2.049,4.057c-1.291,1.965 -2.682,4.086 -3.092,4.713c-0.409,0.626 -1.416,2.522 -2.237,4.214c-0.821,1.691 -1.678,3.075 -1.905,3.075c-0.227,0 -0.295,0.307 -0.151,0.683c0.145,0.376 0.042,0.684 -0.227,0.684c-0.27,0 -0.372,0.307 -0.228,0.683c0.144,0.376 0.058,0.683 -0.192,0.683c-0.249,0 -0.588,0.718 -0.752,1.595c-0.165,0.877 -0.444,1.595 -0.62,1.595c-0.177,0.001 -0.367,0.652 -0.423,1.447c-0.056,0.795 -0.261,1.563 -0.456,1.707c-2.145,1.589 -0.652,1.857 10.366,1.857c11.294,0 12.392,-0.108 11.982,-1.177c-0.136,-0.355 -0.021,-0.646 0.256,-0.646c0.278,0 0.477,-0.153 0.443,-0.341c-0.116,-0.638 1.564,-4.214 1.98,-4.214c0.227,0 0.287,-0.205 0.132,-0.456c-0.155,-0.25 -0.116,-0.458 0.087,-0.461c0.203,-0.003 0.76,-0.823 1.239,-1.822c0.479,-0.999 0.996,-1.817 1.149,-1.817c0.154,0 0.673,-0.732 1.155,-1.626c0.481,-0.894 1.245,-1.824 1.698,-2.066c0.452,-0.242 0.822,-0.706 0.822,-1.031c0,-0.498 2.965,-3.494 8.239,-8.322c0.647,-0.593 1.399,-1.078 1.67,-1.078c0.272,0 0.562,-0.154 0.645,-0.342c0.468,-1.051 11.314,-7.414 11.314,-6.637c0,0.141 0.275,0.028 0.611,-0.251c0.337,-0.279 0.747,-0.372 0.912,-0.207c0.165,0.165 0.299,0.081 0.299,-0.187c0,-0.267 1.077,-0.738 2.392,-1.046c1.316,-0.309 2.616,-0.737 2.89,-0.953c0.273,-0.216 0.627,-0.262 0.786,-0.103c0.159,0.159 0.598,0.031 0.977,-0.283c0.379,-0.314 1.034,-0.439 1.455,-0.277c0.422,0.162 0.89,0.096 1.039,-0.147c0.906,-1.465 23.122,-1.482 23.643,-0.018c0.083,0.235 0.647,0.302 1.252,0.15c0.713,-0.179 1.102,-0.081 1.102,0.277c0,0.325 0.307,0.436 0.741,0.27c0.407,-0.157 0.971,-0.103 1.253,0.119c0.281,0.222 1.588,0.656 2.903,0.965c1.316,0.308 2.392,0.779 2.392,1.046c0,0.268 0.12,0.366 0.267,0.219c1.677,-1.677 22.894,13.62 23.524,16.961c0.07,0.37 0.588,1.051 1.152,1.514c0.564,0.462 1.025,1.021 1.025,1.24c0,0.22 0.513,0.952 1.139,1.628c0.627,0.676 1.139,1.507 1.139,1.846c0,0.339 0.227,0.617 0.504,0.617c0.278,0 0.401,0.271 0.274,0.602c-0.127,0.331 0.178,0.858 0.679,1.171c0.582,0.363 0.828,0.886 0.681,1.448c-0.153,0.582 0.002,0.879 0.459,0.879c0.426,0 0.589,0.261 0.427,0.683c-0.144,0.376 -0.094,0.684 0.112,0.684c2.254,0 6.148,15.901 6.136,25.057c-0.01,7.339 -2.591,20.692 -4.228,21.868c-0.174,0.125 -0.794,1.418 -1.377,2.873c-3.079,7.683 -12.663,18.904 -20.613,24.133c-4.826,3.174 -4.453,3.194 -4.532,-0.241l-0.066,-2.847l-0.453,3.303c-0.294,2.141 -0.658,3.302 -1.035,3.302c-0.32,0 -0.654,0.215 -0.741,0.476c-0.087,0.262 -0.617,0.511 -1.177,0.553c-0.56,0.042 -1.018,0.205 -1.018,0.363c0,0.158 -0.871,0.545 -1.936,0.861c-1.065,0.316 -2.184,0.777 -2.486,1.023c-0.302,0.246 -0.764,0.315 -1.025,0.154c-0.262,-0.162 -0.476,-0.053 -0.476,0.241c0,0.312 -0.381,0.436 -0.911,0.298c-0.501,-0.131 -0.911,-0.076 -0.911,0.123c0,0.393 -2.359,0.953 -3.964,0.941c-0.551,-0.004 -1.123,0.188 -1.27,0.427c-0.148,0.238 -0.875,0.312 -1.617,0.163c-0.742,-0.148 -1.349,-0.09 -1.349,0.129c0,0.219 -3.486,0.399 -7.745,0.399c-4.26,0 -7.745,-0.18 -7.745,-0.399c0,-0.219 -0.607,-0.277 -1.349,-0.129c-0.742,0.149 -1.457,0.096 -1.589,-0.117c-0.131,-0.213 -1.369,-0.529 -2.751,-0.701c-1.381,-0.173 -2.512,-0.518 -2.512,-0.768c0,-0.249 -0.41,-0.323 -0.911,-0.164c-0.558,0.177 -0.911,0.082 -0.911,-0.246c0,-0.294 -0.301,-0.419 -0.669,-0.278c-0.368,0.141 -0.772,0.088 -0.899,-0.117c-0.127,-0.205 -1.159,-0.633 -2.293,-0.95c-1.134,-0.318 -2.061,-0.75 -2.061,-0.96c0,-0.21 -0.308,-0.264 -0.684,-0.12c-0.376,0.145 -0.683,0.024 -0.683,-0.268c0,-0.293 -0.205,-0.405 -0.456,-0.25c-0.25,0.155 -0.455,0.064 -0.455,-0.201c0,-0.265 -0.293,-0.483 -0.651,-0.483c-0.358,0 -0.922,-0.27 -1.253,-0.602c-0.331,-0.331 -0.807,-0.629 -1.058,-0.663c-0.722,-0.098 -3.846,-2.116 -3.86,-2.493c-0.007,-0.188 -0.308,-0.342 -0.67,-0.342c-0.361,0 -0.98,-0.461 -1.375,-1.025c-0.395,-0.564 -0.868,-1 -1.051,-0.969c-0.734,0.123 -1.395,-0.395 -1.624,-1.272c-0.133,-0.509 -0.428,-0.811 -0.656,-0.67c-0.449,0.278 -6.026,-5.012 -6.026,-5.716c0,-0.236 -0.622,-0.953 -1.383,-1.593c-0.76,-0.64 -1.712,-1.806 -2.113,-2.59c-0.402,-0.785 -0.866,-1.529 -1.031,-1.654c-0.732,-0.556 -2.306,-3.17 -2.306,-3.829c0,-0.4 -0.185,-0.727 -0.41,-0.727c-0.226,0 -0.779,-1.025 -1.229,-2.278c-0.451,-1.253 -0.996,-2.278 -1.212,-2.278c-0.216,0 -0.251,-0.228 -0.079,-0.507c0.668,-1.081 -1.317,-1.302 -11.777,-1.308c-10.946,-0.008 -13.154,0.363 -10.806,1.815c0.324,0.2 0.463,0.692 0.309,1.093c-0.154,0.401 -0.106,0.729 0.107,0.729c0.213,0 0.632,0.971 0.931,2.158c0.298,1.187 0.753,2.288 1.009,2.446c0.257,0.159 0.498,0.828 0.536,1.487c0.038,0.659 0.215,1.198 0.393,1.198c0.178,0 0.569,0.821 0.869,1.823c0.3,1.002 0.731,1.822 0.957,1.822c0.225,0 0.283,0.205 0.128,0.456c-0.155,0.25 -0.115,0.457 0.087,0.458c0.479,0.004 1.963,2.613 1.963,3.451c0,0.356 0.171,0.647 0.379,0.647c0.208,0 0.67,0.552 1.025,1.228c0.356,0.676 1.108,1.731 1.672,2.344c0.563,0.614 1.025,1.291 1.025,1.505c0,0.214 0.41,0.8 0.911,1.301c0.501,0.501 0.911,1.218 0.911,1.594c0,0.376 0.223,0.684 0.496,0.684c0.625,0 2.202,1.859 2.222,2.619c0.009,0.313 0.185,0.57 0.392,0.57c0.493,0 6.913,6.42 6.913,6.912c0,0.207 0.229,0.377 0.509,0.377c0.28,0 1.175,0.564 1.988,1.253c0.814,0.689 2.144,1.765 2.955,2.392c0.812,0.626 1.763,1.409 2.112,1.741c0.35,0.331 0.636,0.483 0.636,0.338c0,-0.145 0.974,0.407 2.164,1.227c1.19,0.82 2.933,1.893 3.873,2.385c0.939,0.492 1.708,1.008 1.708,1.148c0,0.139 1.333,0.752 2.961,1.361c1.629,0.609 2.962,1.268 2.962,1.465c0,0.197 0.191,0.357 0.426,0.357c0.234,0 1.003,0.233 1.708,0.517c0.705,0.285 1.792,0.583 2.415,0.664c0.623,0.081 1.2,0.349 1.282,0.596c0.083,0.248 0.424,0.345 0.758,0.217c0.334,-0.128 0.736,-0.026 0.892,0.227c0.157,0.253 1.203,0.598 2.324,0.766c1.122,0.168 2.04,0.492 2.04,0.718c0,0.227 0.512,0.284 1.139,0.127c0.682,-0.171 1.139,-0.091 1.139,0.201c0,0.268 0.563,0.483 1.252,0.48c0.69,-0.004 2.381,0.194 3.759,0.44c1.378,0.246 3.685,0.463 5.125,0.481c1.441,0.018 2.62,0.238 2.62,0.489c0,0.273 1.822,0.456 4.556,0.456c2.733,0 4.556,-0.183 4.556,-0.456c0,-0.251 1.178,-0.471 2.619,-0.489c1.441,-0.018 3.747,-0.228 5.125,-0.467c1.379,-0.238 2.907,-0.438 3.396,-0.443c0.49,-0.006 1.146,-0.223 1.459,-0.482c0.313,-0.26 0.989,-0.339 1.502,-0.176c0.542,0.172 0.933,0.092 0.933,-0.19c0,-0.268 0.312,-0.487 0.694,-0.487c0.383,0 1.846,-0.404 3.253,-0.898c1.406,-0.495 2.734,-0.79 2.95,-0.657c0.215,0.133 0.392,0.003 0.392,-0.289c0,-0.292 0.308,-0.413 0.683,-0.269c0.376,0.145 0.684,0.064 0.684,-0.179c0,-0.242 0.307,-0.441 0.683,-0.441c0.376,0 0.683,-0.205 0.683,-0.456c0,-0.25 0.227,-0.455 0.503,-0.455c0.986,0 8.065,-3.555 11.835,-5.943c13.095,-8.297 22.738,-18.999 29.718,-32.983c1.328,-2.66 2.589,-4.676 2.803,-4.481c0.214,0.195 0.275,0.034 0.136,-0.357c-0.139,-0.391 0.129,-1.519 0.595,-2.506c0.467,-0.987 0.856,-2.153 0.864,-2.591c0.009,-0.439 0.214,-0.798 0.457,-0.798c0.243,0 0.322,-0.31 0.177,-0.689c-0.146,-0.379 -0.019,-0.985 0.281,-1.346c0.3,-0.362 0.422,-0.858 0.271,-1.102c-0.15,-0.244 -0.079,-0.565 0.16,-0.712c0.239,-0.148 0.445,-0.623 0.458,-1.057c0.052,-1.737 0.61,-4.205 0.952,-4.205c0.199,0 0.252,-0.82 0.118,-1.822c-0.145,-1.081 -0.058,-1.823 0.213,-1.823c0.253,0 0.469,-0.871 0.482,-1.936c0.044,-3.637 0.649,-8.542 1.054,-8.542c0.222,0 0.404,-0.205 0.404,-0.456c0,-0.25 -0.307,-0.455 -0.683,-0.455c-0.544,0 -0.685,-0.675 -0.693,-3.303c-0.01,-3.836 -1.03,-11.801 -1.956,-15.275c-0.562,-2.107 -0.557,-2.452 0.037,-2.784c0.472,-0.265 0.522,-0.477 0.165,-0.698c-0.283,-0.175 -0.515,-0.088 -0.515,0.192c0,0.28 -0.222,0.371 -0.495,0.203c-0.272,-0.168 -0.394,-0.693 -0.27,-1.166c0.123,-0.473 0.057,-0.86 -0.148,-0.86c-0.205,0 -0.512,-0.82 -0.681,-1.822c-0.169,-1.002 -0.517,-1.822 -0.772,-1.822c-0.256,0 -0.347,-0.308 -0.202,-0.684c0.144,-0.375 0.112,-0.683 -0.072,-0.683c-0.362,0 -2.145,-4.564 -2.002,-5.125c0.048,-0.188 -0.098,-0.342 -0.324,-0.342c-0.226,0 -0.629,-0.624 -0.895,-1.387c-0.266,-0.763 -0.923,-2.004 -1.461,-2.759c-0.538,-0.756 -0.856,-1.494 -0.708,-1.643c0.148,-0.148 -0.125,-0.61 -0.606,-1.027c-0.481,-0.417 -0.938,-1.03 -1.016,-1.361c-0.079,-0.331 -0.604,-1.117 -1.168,-1.746c-0.563,-0.629 -1.025,-1.334 -1.025,-1.565c0,-0.232 -0.256,-0.682 -0.569,-1.001c-0.313,-0.318 -1.082,-1.271 -1.709,-2.118c-3.032,-4.099 -10.451,-11.518 -14.55,-14.55c-0.846,-0.626 -1.8,-1.395 -2.118,-1.708c-0.318,-0.314 -0.71,-0.57 -0.871,-0.57c-0.161,0 -0.579,-0.256 -0.928,-0.569c-1.453,-1.303 -3.512,-2.513 -8.64,-5.075c-1.002,-0.501 -1.947,-1.094 -2.101,-1.317c-0.153,-0.223 -0.46,-0.391 -0.683,-0.373c-0.718,0.059 -4.494,-1.488 -4.84,-1.982c-0.184,-0.263 -0.337,-0.3 -0.341,-0.081c-0.004,0.218 -0.264,0.191 -0.577,-0.062c-0.313,-0.252 -1.236,-0.601 -2.05,-0.775c-0.814,-0.174 -1.48,-0.519 -1.48,-0.767c0,-0.247 -0.411,-0.32 -0.912,-0.161c-0.545,0.174 -0.911,0.082 -0.911,-0.227c0,-0.303 -0.363,-0.402 -0.873,-0.24c-0.48,0.152 -0.995,0.078 -1.146,-0.166c-0.15,-0.243 -1.397,-0.582 -2.772,-0.754c-1.374,-0.172 -2.498,-0.51 -2.498,-0.751c0,-0.251 -0.583,-0.312 -1.356,-0.142c-0.745,0.164 -1.617,0.129 -1.936,-0.078c-1.17,-0.756 -18.012,-1.295 -19.032,-0.609m107.518,52.398c-0.477,0.308 0.309,0.444 2.592,0.448c1.802,0.004 3.403,-0.198 3.558,-0.448c0.369,-0.597 -5.226,-0.597 -6.15,0m9.111,0c0,0.262 1.4,0.452 3.303,0.448c2.301,-0.004 3.096,-0.141 2.62,-0.448c-0.905,-0.585 -5.923,-0.585 -5.923,0m-13.212,0.455c0,0.251 0.41,0.456 0.911,0.456c0.502,0 0.912,-0.205 0.912,-0.456c0,-0.25 -0.41,-0.455 -0.912,-0.455c-0.501,0 -0.911,0.205 -0.911,0.455m21.413,0c0,0.251 0.41,0.456 0.911,0.456c0.501,0 0.911,-0.205 0.911,-0.456c0,-0.25 -0.41,-0.455 -0.911,-0.455c-0.501,0 -0.911,0.205 -0.911,0.455m-25.285,0.912c-0.879,0.377 -0.876,0.392 0.087,0.423c0.549,0.018 1.125,-0.173 1.28,-0.423c0.333,-0.539 -0.113,-0.539 -1.367,0m29.84,0c0.376,0.242 0.991,0.441 1.367,0.441c0.608,0 0.608,-0.049 0,-0.441c-0.376,-0.243 -0.991,-0.442 -1.367,-0.442c-0.607,0 -0.607,0.049 0,0.442m-33.029,0.331c-0.752,0.107 -1.572,0.399 -1.823,0.65c-0.573,0.574 2.992,0.002 3.622,-0.581c0.274,-0.253 0.274,-0.375 0,-0.332c-0.238,0.037 -1.048,0.156 -1.799,0.263m35.535,0.124c0.155,0.251 0.589,0.456 0.965,0.456c0.376,0 0.557,-0.205 0.402,-0.456c-0.155,-0.25 -0.589,-0.455 -0.965,-0.455c-0.376,0 -0.557,0.205 -0.402,0.455m-41.078,1.551c0,0.352 0.273,0.535 0.607,0.407c0.334,-0.128 0.608,-0.416 0.608,-0.64c0,-0.224 -0.274,-0.407 -0.608,-0.407c-0.334,0 -0.607,0.288 -0.607,0.64m49.506,0.726c0,0.197 0.494,0.482 1.097,0.633c0.603,0.151 1.423,0.401 1.822,0.554c0.399,0.153 0.726,0.076 0.726,-0.171c0,-0.247 -0.82,-0.657 -1.822,-0.911c-1.003,-0.254 -1.823,-0.302 -1.823,-0.105m-53.189,0.356c-0.564,0.09 -1.025,0.369 -1.025,0.619c0,0.399 1.706,0.135 2.24,-0.347c0.352,-0.317 -0.183,-0.437 -1.215,-0.272m59.112,1.894c0,0.208 0.359,0.481 0.797,0.608c0.439,0.126 1.19,0.389 1.669,0.586c0.579,0.236 0.771,0.192 0.571,-0.132c-0.391,-0.632 -3.037,-1.558 -3.037,-1.062m3.68,1.273c-0.019,0.308 0.785,0.978 1.787,1.489c1.002,0.512 1.822,0.737 1.822,0.501c0,-0.237 -0.704,-0.662 -1.565,-0.946c-0.861,-0.285 -1.665,-0.762 -1.786,-1.061c-0.167,-0.41 -0.23,-0.406 -0.258,0.017m6.497,4.007c0.711,0.409 1.412,0.624 1.556,0.479c0.391,-0.39 0.037,-0.612 -1.483,-0.933l-1.366,-0.289l1.293,0.743m2.162,1.305c1.389,1.303 8.162,6.058 8.162,5.731c0,-0.243 -0.205,-0.442 -0.456,-0.442c-0.25,0 -0.455,-0.307 -0.455,-0.683c0,-0.38 -0.405,-0.684 -0.911,-0.684c-0.501,0 -0.911,-0.21 -0.911,-0.467c0,-0.256 -0.513,-0.661 -1.139,-0.899c-0.627,-0.239 -1.139,-0.629 -1.139,-0.867c0,-0.238 -0.647,-0.756 -1.437,-1.15c-1.373,-0.685 -2.121,-0.92 -1.714,-0.539m12.755,10.582c2.15,2.226 5.198,5.687 6.773,7.691c1.576,2.005 2.964,3.747 3.085,3.873c0.122,0.125 -0.231,-0.644 -0.783,-1.709c-0.552,-1.065 -1.163,-1.936 -1.358,-1.936c-0.195,0 -0.609,-0.615 -0.92,-1.367c-0.312,-0.752 -0.815,-1.367 -1.118,-1.367c-0.303,0 -0.842,-0.553 -1.197,-1.23c-0.83,-1.58 -5.805,-6.656 -7.269,-7.417c-0.618,-0.321 0.637,1.237 2.787,3.462m-64.16,-2.238c-1.27,0.245 -1.357,1.045 -0.114,1.045c0.501,0 0.911,-0.19 0.911,-0.424c0,-0.233 0.461,-0.512 1.025,-0.621c0.828,-0.159 0.85,-0.197 0.114,-0.197c-0.501,0 -1.372,0.088 -1.936,0.197m6.15,0.012c1.065,0.096 2.808,0.096 3.873,0c1.065,-0.096 0.193,-0.174 -1.937,-0.174c-2.129,0 -3.001,0.078 -1.936,0.174m7.745,-0.012c0.564,0.109 1.025,0.388 1.025,0.621c0,0.234 0.41,0.424 0.911,0.424c1.429,0 1.066,-0.766 -0.512,-1.082c-0.783,-0.156 -1.655,-0.257 -1.936,-0.222c-0.282,0.034 -0.052,0.15 0.512,0.259m-18.109,1.045c0,0.251 0.295,0.456 0.656,0.456c0.361,0 0.783,-0.205 0.938,-0.456c0.155,-0.25 -0.14,-0.455 -0.656,-0.455c-0.516,0 -0.938,0.205 -0.938,0.455m22.551,0c0.155,0.251 0.577,0.456 0.938,0.456c0.361,0 0.656,-0.205 0.656,-0.456c0,-0.25 -0.422,-0.455 -0.938,-0.455c-0.515,0 -0.811,0.205 -0.656,0.455m-24.829,0.456c0,0.571 0.483,0.571 1.367,0c0.552,-0.357 0.487,-0.443 -0.342,-0.449c-0.564,-0.004 -1.025,0.198 -1.025,0.449m27.335,0c0.883,0.571 1.366,0.571 1.366,0c0,-0.251 -0.461,-0.453 -1.025,-0.449c-0.829,0.006 -0.894,0.092 -0.341,0.449m-30.296,0.685l-1.367,0.644l1.367,-0.27c0.751,-0.149 1.674,-0.442 2.05,-0.651c1.226,-0.683 -0.513,-0.448 -2.05,0.277m32.574,-0.311c1.038,0.629 3.506,1.143 2.961,0.617c-0.251,-0.242 -1.173,-0.573 -2.05,-0.735c-1.038,-0.192 -1.356,-0.151 -0.911,0.118m-37.7,2.127c-0.814,0.354 -1.48,0.746 -1.48,0.87c0,0.307 2.853,-0.664 3.394,-1.155c0.644,-0.586 -0.199,-0.46 -1.914,0.285m44.254,0.149c0.159,0.258 0.885,0.6 1.613,0.76c0.728,0.159 1.422,0.546 1.542,0.859c0.12,0.313 1.06,0.822 2.088,1.13c1.029,0.308 1.87,0.769 1.87,1.024c0,0.255 0.192,0.345 0.428,0.2c0.235,-0.145 0.593,0.008 0.797,0.342c0.203,0.333 1.036,0.875 1.85,1.203c0.814,0.329 1.481,0.785 1.481,1.013c0,0.228 0.359,0.546 0.797,0.707c0.898,0.329 1.041,0.454 6.76,5.951c2.278,2.188 4.265,4.324 4.417,4.746c0.151,0.422 0.748,1.02 1.326,1.328c4.157,2.215 -8.278,-10.058 -14.326,-14.139c-4.108,-2.773 -11.343,-6.256 -10.643,-5.124m-47.544,1.432c-0.368,0.233 -0.517,0.577 -0.33,0.763c0.186,0.187 0.686,-0.007 1.109,-0.43c0.824,-0.824 0.331,-1.034 -0.779,-0.333m92.791,9.927c0.438,0.689 0.916,1.355 1.061,1.481c0.146,0.125 0.519,0.842 0.829,1.594c0.753,1.82 2.286,3.634 2.698,3.191c0.182,-0.195 0.07,-0.447 -0.249,-0.561c-0.716,-0.256 -2.152,-2.88 -1.999,-3.655c0.062,-0.313 -0.09,-0.569 -0.337,-0.569c-0.248,0 -0.813,-0.615 -1.257,-1.367c-0.444,-0.752 -0.973,-1.367 -1.176,-1.367c-0.202,0 -0.009,0.564 0.43,1.253m4.242,7.289c0.013,0.624 0.85,1.687 1.118,1.419c0.359,-0.359 -0.213,-1.76 -0.718,-1.76c-0.224,0 -0.404,0.153 -0.4,0.341m-23.722,2.05c2.139,2.611 2.76,3.519 2.773,4.052c0.016,0.696 1.064,2.213 1.528,2.213c0.167,0 -0.039,-0.667 -0.456,-1.481c-1.211,-2.362 -3.368,-5.353 -3.86,-5.353c-0.291,0 -0.285,0.203 0.015,0.569m25.026,0.888c0.204,0.551 0.612,1.048 0.908,1.105c0.295,0.057 0.327,-0.001 0.07,-0.129c-0.257,-0.127 -0.467,-0.624 -0.467,-1.104c0,-0.481 -0.198,-0.873 -0.441,-0.873c-0.262,0 -0.291,0.404 -0.07,1.001m0.967,1.974c0,0.498 1.329,3.403 1.557,3.403c0.13,0 0.158,-0.257 0.061,-0.57c-0.096,-0.313 -0.299,-1.133 -0.45,-1.822c-0.226,-1.031 -1.168,-1.846 -1.168,-1.011m-148.676,2.13c-0.246,0.941 -0.056,1.66 0.328,1.235c0.464,-0.515 0.747,-2.24 0.368,-2.24c-0.238,0 -0.551,0.452 -0.696,1.005m-0.598,2.545c-0.145,0.553 -0.444,1.006 -0.665,1.006c-0.222,0 -0.403,0.205 -0.403,0.455c0,0.251 0.21,0.456 0.467,0.456c0.544,0 1.505,-2.281 1.122,-2.663c-0.142,-0.142 -0.376,0.194 -0.521,0.746m127.704,-0.53c0.29,0.119 0.796,1.128 1.125,2.242c0.329,1.115 0.772,2.027 0.985,2.027c0.213,0 0.245,-0.461 0.071,-1.025c-0.588,-1.904 -1.588,-3.531 -2.149,-3.495c-0.399,0.026 -0.408,0.097 -0.032,0.251m23.545,1.114c0.276,0.733 0.634,1.333 0.795,1.333c0.53,0 -0.118,-2.212 -0.715,-2.441c-0.461,-0.177 -0.478,0.056 -0.08,1.108m-155.05,12.494c0,0.376 0.205,0.684 0.455,0.684c0.251,0 0.456,-0.308 0.456,-0.684c0,-0.375 -0.205,-0.683 -0.456,-0.683c-0.25,0 -0.455,0.308 -0.455,0.683m-0.114,2.766c-0.188,0.191 -0.342,0.969 -0.342,1.729c0,0.989 0.14,1.242 0.491,0.891c0.271,-0.27 0.424,-1.048 0.342,-1.729c-0.082,-0.681 -0.303,-1.082 -0.491,-0.891m25.234,32.998c-0.041,1.122 1.584,3.841 1.946,3.255c0.177,-0.287 0.133,-0.522 -0.098,-0.522c-0.232,0 -0.736,-0.769 -1.122,-1.708c-0.385,-0.94 -0.712,-1.401 -0.726,-1.025m108.365,-0.321c0,0.158 -0.412,1.333 -0.916,2.612c-0.504,1.278 -0.726,2.206 -0.492,2.062c0.613,-0.379 2.05,-4.319 1.701,-4.667c-0.161,-0.162 -0.293,-0.165 -0.293,-0.007m-130.505,2.111c-0.144,0.234 -0.074,0.541 0.156,0.682c0.229,0.142 0.663,1.284 0.964,2.538c0.3,1.253 0.753,2.279 1.005,2.279c0.253,0 0.365,-0.256 0.249,-0.57c-0.116,-0.313 -0.564,-1.645 -0.997,-2.961c-0.819,-2.491 -0.943,-2.669 -1.377,-1.968m151.923,1.844c-0.394,0.735 -0.355,0.852 0.211,0.635c0.382,-0.147 0.694,-0.552 0.694,-0.901c0,-0.89 -0.34,-0.79 -0.905,0.266m-126.342,3.667c1.668,2.986 3.166,4.853 3.572,4.45c0.178,-0.177 -0.318,-0.963 -1.102,-1.747c-0.784,-0.784 -1.308,-1.614 -1.165,-1.846c0.143,-0.231 -0.042,-0.536 -0.411,-0.678c-0.369,-0.141 -0.796,-0.755 -0.949,-1.363c-0.153,-0.608 -0.491,-1.106 -0.751,-1.106c-0.26,0 0.103,1.031 0.806,2.29m101.964,-1.382c-0.159,0.5 -0.584,1.205 -0.946,1.566c-0.389,0.389 -0.477,0.768 -0.215,0.93c0.243,0.15 0.863,-0.555 1.379,-1.566c0.516,-1.011 0.743,-1.838 0.504,-1.838c-0.239,0 -0.564,0.409 -0.722,0.908m23.461,-0.49c0,0.23 -0.137,0.776 -0.305,1.214c-0.192,0.5 -0.128,0.686 0.173,0.5c0.629,-0.389 1.075,-2.132 0.545,-2.132c-0.227,0 -0.413,0.188 -0.413,0.418m-148.709,2.709c-0.176,0.285 -0.103,0.518 0.163,0.518c0.265,0 0.482,0.384 0.482,0.855c0,0.47 0.308,1.111 0.684,1.422c0.472,0.392 0.683,0.41 0.683,0.056c0,-0.281 -0.217,-0.511 -0.482,-0.511c-0.266,0 -0.386,-0.156 -0.268,-0.348c0.118,-0.191 -0.046,-0.833 -0.364,-1.428c-0.373,-0.696 -0.692,-0.897 -0.898,-0.564m122.404,2.196c-0.8,1.723 -0.395,1.812 0.774,0.17c0.678,-0.953 0.802,-1.392 0.391,-1.389c-0.33,0.002 -0.854,0.551 -1.165,1.219m22.442,4.13c-0.726,1.441 -2.005,3.696 -2.843,5.012c-0.974,1.53 -1.304,2.391 -0.917,2.391c0.334,0 0.866,-0.717 1.183,-1.594c0.317,-0.877 0.802,-1.595 1.079,-1.595c0.276,0 0.371,-0.13 0.211,-0.29c-0.159,-0.16 0.114,-0.857 0.608,-1.551c0.493,-0.693 0.897,-1.485 0.897,-1.76c0,-0.274 0.205,-0.499 0.456,-0.499c0.251,0 0.412,-0.154 0.359,-0.342c-0.053,-0.187 0.159,-0.803 0.471,-1.366c0.313,-0.564 0.399,-1.025 0.192,-1.025c-0.207,0 -0.97,1.178 -1.696,2.619m-117.688,-1.28c0.615,0.986 1.278,1.245 1.278,0.499c0,-0.242 -0.42,-0.664 -0.932,-0.938c-0.861,-0.461 -0.887,-0.427 -0.346,0.439m93.647,-0.392c-0.439,0.256 -0.798,0.653 -0.798,0.884c0,0.451 -8.521,9.103 -8.966,9.103c-0.148,0 -0.716,0.483 -1.263,1.073c-0.548,0.591 -1.289,1.178 -1.647,1.304c-0.359,0.127 -0.52,0.374 -0.36,0.548c0.44,0.476 8.038,-6.02 10.653,-9.107c3.793,-4.478 3.94,-4.713 2.381,-3.805m-118.545,0.386c-0.166,0.269 -0.118,0.489 0.108,0.489c0.418,0 1.59,2.115 1.657,2.992c0.02,0.267 0.396,0.846 0.834,1.285c0.439,0.44 0.802,1.041 0.808,1.336c0.012,0.659 1.791,2.997 1.794,2.36c0.002,-0.251 -0.495,-1.276 -1.103,-2.278c-0.609,-1.003 -1.417,-2.493 -1.796,-3.312c-1.072,-2.32 -1.959,-3.426 -2.302,-2.872m28.387,4.046c2.341,2.712 4.933,4.94 5.31,4.564c0.262,-0.263 -4.392,-4.975 -6.199,-6.275c-1.329,-0.957 -1.203,-0.713 0.889,1.711m-22.712,4.99c0,0.78 1.427,3.298 1.87,3.298c0.24,0 0.563,0.359 0.717,0.797c0.311,0.883 0.628,1.237 6.52,7.294c2.258,2.32 4.104,4.444 4.104,4.719c0,0.274 0.298,0.385 0.662,0.245c0.392,-0.15 1.136,0.309 1.823,1.126c0.638,0.758 1.16,1.225 1.16,1.037c0,-0.189 0.461,0.073 1.025,0.58c1.141,1.027 2.164,1.674 2.164,1.368c0,-0.11 -1.179,-1.085 -2.619,-2.166c-3.952,-2.967 -11.483,-10.65 -14.631,-14.925c-1.537,-2.089 -2.795,-3.607 -2.795,-3.373m29.385,1.283c2.099,1.754 7.349,5.204 7.92,5.204c0.279,0 0.508,0.174 0.508,0.387c0,0.212 0.82,0.708 1.822,1.102c1.002,0.394 1.822,0.527 1.822,0.297c0,-0.231 -0.278,-0.419 -0.619,-0.419c-0.341,0 -1.35,-0.495 -2.241,-1.1c-0.892,-0.605 -1.708,-1.013 -1.815,-0.907c-0.106,0.107 -0.725,-0.299 -1.375,-0.902c-0.651,-0.603 -1.298,-0.981 -1.439,-0.84c-0.14,0.141 -0.255,0.006 -0.255,-0.299c0,-0.305 -0.615,-0.77 -1.367,-1.032c-0.752,-0.262 -1.367,-0.719 -1.367,-1.015c0,-0.297 -0.666,-0.782 -1.481,-1.079l-1.48,-0.54l1.367,1.143m101.237,1.027c-0.87,1.212 -2.858,3.685 -4.418,5.497c-1.559,1.812 -2.728,3.402 -2.597,3.533c0.267,0.267 3.5,-3.026 3.5,-3.565c0,-0.19 0.563,-0.947 1.252,-1.681c0.69,-0.735 1.663,-1.883 2.164,-2.551c0.502,-0.668 1.263,-1.604 1.692,-2.08c0.43,-0.476 0.603,-0.975 0.385,-1.11c-0.218,-0.135 -1.108,0.746 -1.978,1.957m-34.048,2.962c-1.132,0.543 -2.567,1.332 -3.189,1.754c-0.622,0.421 -1.686,0.903 -2.364,1.07c-0.679,0.166 -1.473,0.59 -1.765,0.942c-0.291,0.351 -0.966,0.641 -1.499,0.645c-1.17,0.009 -2.428,0.736 -2.005,1.16c0.168,0.167 1.289,-0.155 2.493,-0.716c5.587,-2.604 8.657,-4.188 9.704,-5.007c1.421,-1.111 1.211,-1.088 -1.375,0.152m-54.656,3.379c0.008,0.509 3.595,2.133 3.943,1.785c0.165,-0.165 -0.348,-0.526 -1.141,-0.802c-0.792,-0.277 -1.44,-0.687 -1.44,-0.914c0,-0.226 -0.308,-0.411 -0.684,-0.411c-0.375,0 -0.681,0.154 -0.678,0.342m7.982,3.259c0.243,0.236 1.261,0.559 2.264,0.718c1.189,0.189 1.584,0.144 1.139,-0.129c-0.988,-0.606 -3.948,-1.118 -3.403,-0.589m30.51,0.295l-1.823,0.637l1.823,-0.252c1.002,-0.138 2.017,-0.44 2.255,-0.671c0.586,-0.569 -0.03,-0.491 -2.255,0.286m40.402,1.172c-2.052,1.936 -2.302,2.801 -0.461,1.594c0.877,-0.574 3.047,-3.5 2.567,-3.461c-0.077,0.006 -1.025,0.847 -2.106,1.867m-64.093,-0.056c0.155,0.25 0.68,0.455 1.166,0.455c0.487,0 0.885,-0.205 0.885,-0.455c0,-0.251 -0.525,-0.456 -1.166,-0.456c-0.662,0 -1.044,0.197 -0.885,0.456m17.085,0c0,0.25 0.41,0.455 0.911,0.455c0.501,0 0.911,-0.205 0.911,-0.455c0,-0.251 -0.41,-0.456 -0.911,-0.456c-0.501,0 -0.911,0.205 -0.911,0.456m-9.87,1.027c1.766,0.302 3.449,0.302 5.011,0.001c2.159,-0.416 1.94,-0.453 -2.658,-0.454c-4.805,-0.002 -4.902,0.017 -2.353,0.453m53.286,2.277c-0.2,0.314 -1.244,1.168 -2.32,1.898c-2.163,1.468 -2.862,2.242 -1.598,1.77c0.451,-0.168 1.091,-0.682 1.421,-1.141c0.331,-0.459 0.764,-0.734 0.964,-0.61c0.351,0.216 1.368,-0.741 2.038,-1.918c0.423,-0.743 -0.03,-0.742 -0.505,0.001m-96.719,4.331c0,0.218 0.717,0.739 1.594,1.157c0.877,0.418 1.595,0.945 1.595,1.171c0,0.493 3.163,2.059 3.493,1.73c0.126,-0.126 -0.198,-0.459 -0.721,-0.738c-0.522,-0.28 -0.95,-0.391 -0.95,-0.247c0,0.145 -0.517,-0.216 -1.148,-0.802c-1.495,-1.387 -3.863,-2.779 -3.863,-2.271m89.412,1.021c-1.063,0.737 -2.568,1.668 -3.346,2.07c-0.777,0.402 -1.308,0.835 -1.18,0.964c0.286,0.286 3.496,-1.198 3.496,-1.616c0,-0.165 0.718,-0.686 1.595,-1.158c0.877,-0.473 1.594,-1.032 1.594,-1.243c0,-0.52 0.029,-0.533 -2.159,0.983m-82.123,3.581c0,0.205 0.513,0.606 1.139,0.892c0.626,0.285 1.139,0.351 1.139,0.146c0,-0.205 -0.513,-0.606 -1.139,-0.892c-0.626,-0.285 -1.139,-0.351 -1.139,-0.146m74.374,0.869c-2.214,1.116 -3.03,1.928 -1.937,1.928c0.251,0 0.456,-0.177 0.456,-0.394c0,-0.216 0.922,-0.746 2.05,-1.176c1.128,-0.431 2.05,-0.971 2.05,-1.201c0,-0.518 0.22,-0.588 -2.619,0.843m-70.274,1.389c0,0.205 1.179,0.743 2.62,1.195c1.441,0.452 2.789,1.053 2.996,1.336c0.249,0.34 0.315,0.288 0.194,-0.155c-0.099,-0.368 -1.389,-1.137 -2.865,-1.709c-3.066,-1.187 -2.945,-1.16 -2.945,-0.667m66.401,0.397c-0.438,0.115 -0.797,0.38 -0.797,0.588c0,0.209 0.41,0.273 0.911,0.142c0.501,-0.131 0.911,-0.42 0.911,-0.641c0,-0.221 -0.051,-0.379 -0.114,-0.35c-0.062,0.029 -0.472,0.147 -0.911,0.261m-2.506,1.067c-0.563,0.227 -1.008,0.675 -0.989,0.997c0.029,0.457 0.086,0.46 0.266,0.014c0.127,-0.313 0.623,-0.569 1.103,-0.569c0.48,0 0.873,-0.205 0.873,-0.456c0,-0.25 -0.051,-0.442 -0.114,-0.427c-0.062,0.016 -0.575,0.215 -1.139,0.441m-57.517,1.353c0,0.25 0.308,0.455 0.684,0.455c0.376,0 0.683,-0.205 0.683,-0.455c0,-0.251 -0.307,-0.456 -0.683,-0.456c-0.376,0 -0.684,0.205 -0.684,0.456m53.759,0.077c-0.877,0.247 -1.8,0.669 -2.05,0.937c-0.316,0.337 -0.221,0.404 0.309,0.219c0.421,-0.148 1.497,-0.406 2.392,-0.574c0.895,-0.168 1.627,-0.487 1.627,-0.71c0,-0.476 -0.174,-0.466 -2.278,0.128m-51.936,0.33c0,0.233 0.82,0.563 1.822,0.732c1.002,0.169 1.822,0.495 1.822,0.723c0,0.229 0.205,0.416 0.456,0.416c0.861,0 0.455,-0.934 -0.57,-1.311c-1.995,-0.736 -3.53,-0.979 -3.53,-0.56m43.425,2.036c-1.298,0.285 -2.528,0.701 -2.733,0.924c-0.215,0.234 0.11,0.291 0.766,0.136c0.626,-0.149 2.014,-0.41 3.085,-0.58c1.07,-0.17 2.056,-0.487 2.191,-0.705c0.298,-0.483 -0.261,-0.445 -3.309,0.225m-35.68,0.29c0.883,0.571 1.366,0.571 1.366,0c0,-0.25 -0.461,-0.452 -1.025,-0.448c-0.829,0.005 -0.894,0.091 -0.341,0.448m2.505,0.456c1.362,0.585 2.5,0.585 1.595,0c-0.376,-0.243 -1.094,-0.43 -1.595,-0.417l-0.911,0.025l0.911,0.392m3.306,0.303c0.315,0.127 0.456,0.418 0.315,0.647c-0.142,0.229 0.267,0.417 0.908,0.417c1.44,0 1.532,-0.707 0.141,-1.08c-1.215,-0.325 -2.183,-0.314 -1.364,0.016m24.143,0.011c-0.909,0.238 -1.09,1.06 -0.228,1.038c0.313,-0.008 0.968,-0.315 1.454,-0.683c0.9,-0.681 0.482,-0.801 -1.226,-0.355m-19.02,1.053c0,0.25 0.82,0.455 1.822,0.455c1.002,0 1.822,-0.205 1.822,-0.455c0,-0.251 -0.82,-0.456 -1.822,-0.456c-1.002,0 -1.822,0.205 -1.822,0.456m11.389,0c0,0.25 0.923,0.455 2.05,0.455c1.128,0 2.05,-0.205 2.05,-0.455c0,-0.251 -0.922,-0.456 -2.05,-0.456c-1.127,0 -2.05,0.205 -2.05,0.456" id="path4"/>
  </g>
 </g>
</svg>